<?xml version="1.0" encoding="UTF-8" standalone="no"?>
<!-- Generator: Adobe Illustrator 19.0.0, SVG Export Plug-In . SVG Version: 6.00 Build 0)  -->

<svg
   xmlns:dc="http://purl.org/dc/elements/1.1/"
   xmlns:cc="http://creativecommons.org/ns#"
   xmlns:rdf="http://www.w3.org/1999/02/22-rdf-syntax-ns#"
   xmlns:svg="http://www.w3.org/2000/svg"
   xmlns="http://www.w3.org/2000/svg"
   xmlns:sodipodi="http://sodipodi.sourceforge.net/DTD/sodipodi-0.dtd"
   xmlns:inkscape="http://www.inkscape.org/namespaces/inkscape"
   version="1.1"
   id="Layer_1"
   x="0px"
   y="0px"
   viewBox="-1167.6 141 512 512"
   style="enable-background:new -1167.6 141 512 512;"
   xml:space="preserve"
   inkscape:version="0.91 r13725"
   sodipodi:docname="icon06.svg"><metadata
     id="metadata65"><rdf:RDF><cc:Work
         rdf:about=""><dc:format>image/svg+xml</dc:format><dc:type
           rdf:resource="http://purl.org/dc/dcmitype/StillImage" /></cc:Work></rdf:RDF></metadata><defs
     id="defs63" /><sodipodi:namedview
     pagecolor="#ffffff"
     bordercolor="#666666"
     borderopacity="1"
     objecttolerance="10"
     gridtolerance="10"
     guidetolerance="10"
     inkscape:pageopacity="0"
     inkscape:pageshadow="2"
     inkscape:window-width="1920"
     inkscape:window-height="1017"
     id="namedview61"
     showgrid="false"
     inkscape:zoom="0.4609375"
     inkscape:cx="256"
     inkscape:cy="-698.57627"
     inkscape:window-x="-8"
     inkscape:window-y="-8"
     inkscape:window-maximized="1"
     inkscape:current-layer="Layer_1" /><style
     type="text/css"
     id="style3">
	.st0{fill:#58595B;}
	.st1{fill:#FFFFFF;}
	.st2{fill:#231F20;}
</style><circle
     class="st0"
     cx="-911.6"
     cy="397"
     r="222.7"
     id="circle9" /><g
     id="g11"><path
       class="st1"
       d="M-951.8,222.4c-63.6,0-115.2,51.6-115.2,115.2s51.6,115.2,115.2,115.2h102.2c7.2,0,13-5.8,13-13V337.6   C-836.6,274-888.2,222.4-951.8,222.4z M-860.2,361.2v46.2V419c0,5.7-4.6,10.3-10.3,10.3H-882h-46.2h-23.6   c-50.6,0-91.6-41-91.6-91.6s41-91.6,91.6-91.6s91.6,41,91.6,91.6V361.2z"
       id="path13" /></g><path
     class="st1"
     d="M-842.6,460.8l-12.5,1.9c0.2,0.4,0.5,0.7,0.8,1.1l71.3,83.8c3.4,3.4,7.8,4.5,12.4-0.1l27.6-27.6  c4.6-4.6,3.5-9,0.1-12.4l-83.8-71.3c-0.3-0.3-0.7-0.6-1.1-0.8l-1.9,12.5C-830.6,454.1-836.4,459.9-842.6,460.8z"
     id="path15" /><rect
     x="-1005.7"
     y="347.7"
     class="st1"
     width="107.9"
     height="17.1"
     id="rect31" /><rect
     x="-1005.7"
     y="310.4"
     class="st1"
     width="107.9"
     height="17.1"
     id="rect33" /><rect
     x="-978.9"
     y="283.7"
     class="st1"
     width="17.1"
     height="107.9"
     id="rect35" /><rect
     x="-941.8"
     y="283.7"
     class="st1"
     width="17.1"
     height="107.9"
     id="rect37" /></svg>