<?xml version="1.0" encoding="utf-8"?>
<!-- Generator: Adobe Illustrator 19.0.0, SVG Export Plug-In . SVG Version: 6.00 Build 0)  -->
<svg version="1.1" id="Layer_1" xmlns="http://www.w3.org/2000/svg" xmlns:xlink="http://www.w3.org/1999/xlink" x="0px" y="0px"
	 viewBox="-49 1254.9 512 512" style="enable-background:new -49 1254.9 512 512;" xml:space="preserve">
<style type="text/css">
	.st0{fill:#58595B;}
	.st1{fill:#FFFFFF;}
</style>
<path class="st0" d="M207,1288.1c-123,0-222.7,99.7-222.7,222.7S84,1733.6,207,1733.6s222.7-99.7,222.7-222.7S330,1288.1,207,1288.1
	z M114.7,1481.5c-1.9,0-1.9-3,0-3C116.6,1478.5,116.6,1481.5,114.7,1481.5z"/>
<g>
	<path class="st1" d="M290.3,1398.4h-70.8v25h45.8c16.1,0,29.2,13.1,29.2,29.2v116.6c0,16.1-13.1,29.2-29.2,29.2H148.7
		c-16.1,0-29.2-13.1-29.2-29.2v-170.5c-14.2,2-25,14.2-25,28.9v166.7c0,16.1,13.1,29.2,29.2,29.2h166.7c16.1,0,29.2-13.1,29.2-29.2
		v-166.7C319.5,1411.4,306.4,1398.4,290.3,1398.4z M114.7,1481.5c-1.9,0-1.9-3,0-3C116.6,1478.5,116.6,1481.5,114.7,1481.5z"/>
	<path class="st1" d="M194.5,1427.2v67.6h25v-71.5h-24.8C194.6,1424.6,194.5,1425.9,194.5,1427.2z"/>
	<path class="st1" d="M194.7,1423.4h24.8v-25C206.6,1400.2,196.4,1410.4,194.7,1423.4z"/>
	<path class="st1" d="M207.1,1494.9H237c4.6,0,7,5.5,3.9,8.9l-12.8,13.9l-17.1,18.5c-2.1,2.3-5.7,2.3-7.8,0l-17.1-18.5l-12.8-13.9
		c-3.1-3.4-0.7-8.9,3.9-8.9H207.1z"/>
	<path class="st1" d="M157.8,1423.4h-7.6c-1.4,0-2.6-1.2-2.6-2.6V1401c0-1.4,1.2-2.6,2.6-2.6h7.6c1.4,0,2.6,1.2,2.6,2.6v19.8
		C160.4,1422.2,159.2,1423.4,157.8,1423.4z"/>
	<path class="st1" d="M119.5,1455.3v-2.8c0-16.1,13.1-29.2,29.2-29.2h5v-25h-30c-16.1,0-29.2,13.1-29.2,29.2v27.8H119.5z"/>
</g>
</svg>
