<?xml version="1.0" encoding="UTF-8" standalone="no"?>
<!-- Generator: Adobe Illustrator 19.0.0, SVG Export Plug-In . SVG Version: 6.00 Build 0)  -->

<svg
   xmlns:dc="http://purl.org/dc/elements/1.1/"
   xmlns:cc="http://creativecommons.org/ns#"
   xmlns:rdf="http://www.w3.org/1999/02/22-rdf-syntax-ns#"
   xmlns:svg="http://www.w3.org/2000/svg"
   xmlns="http://www.w3.org/2000/svg"
   xmlns:sodipodi="http://sodipodi.sourceforge.net/DTD/sodipodi-0.dtd"
   xmlns:inkscape="http://www.inkscape.org/namespaces/inkscape"
   version="1.1"
   id="Layer_1"
   x="0px"
   y="0px"
   viewBox="-604.3 1254.9 512 512"
   style="enable-background:new -604.3 1254.9 512 512;"
   xml:space="preserve"
   inkscape:version="0.91 r13725"
   sodipodi:docname="icon07.svg"><metadata
     id="metadata49"><rdf:RDF><cc:Work
         rdf:about=""><dc:format>image/svg+xml</dc:format><dc:type
           rdf:resource="http://purl.org/dc/dcmitype/StillImage" /></cc:Work></rdf:RDF></metadata><defs
     id="defs47" /><sodipodi:namedview
     pagecolor="#ffffff"
     bordercolor="#666666"
     borderopacity="1"
     objecttolerance="10"
     gridtolerance="10"
     guidetolerance="10"
     inkscape:pageopacity="0"
     inkscape:pageshadow="2"
     inkscape:window-width="1920"
     inkscape:window-height="1017"
     id="namedview45"
     showgrid="false"
     inkscape:zoom="0.4609375"
     inkscape:cx="256"
     inkscape:cy="256"
     inkscape:window-x="-8"
     inkscape:window-y="-8"
     inkscape:window-maximized="1"
     inkscape:current-layer="Layer_1" /><style
     type="text/css"
     id="style3">
	.st0{fill:#58595B;}
	.st1{fill:#FFFFFF;}
	.st2{fill:#231F20;}
	.st3{font-family:'ScriptMTBold';}
	.st4{font-size:341.6635px;}
</style><circle
     class="st0"
     cx="-348.3"
     cy="1510.9"
     r="222.7"
     id="circle7" /><g
     id="g23"><path
       class="st2"
       d="M-393.3,1540.9c31.8-13.1,38.6,2.8,38.6,2.8c0,0,2.8-3.4,3.1-3.8c2-3.4,1.7-7.6,1.5-11.5   c-0.2-4.4-0.2-11.2-3.2-14.7c-2.5-3-10.6-13.7-17.7-25c-18.8-0.9-36.2,2.8-51.3,11.7c-10.6,6.2-19.5,14.7-26.8,25   c1.3,4.9,2.5,9.8,3.8,14.7c1.8,6.6,2.9,12.9,8.2,17.8c2.3,2.2,5,4.1,7.3,6.4c2.1,2,4.3,4.2,7,5.2c2.5,1,5.2,1.6,7.9,1.7   C-414.9,1571.3-425.1,1554-393.3,1540.9z"
       id="path25" /><path
       class="st2"
       d="M-306.7,1693.9c2-2,0.9-6.1,0.6-8.6c-0.4-3.4-1-6.8-1.3-10.2c-0.7-9,1.5-19.7-3.1-27.9   c-2.6-4.6-5.8-8.7-8.5-13.3c-2.8-4.9-5.5-9.9-8-14.9c-5.1-10.2-9.6-20.7-13.8-31.3c-3.5-8.8-6.8-17.8-9.9-26.7   c-1.6-4.8-3.2-9.6-4.7-14.4c-0.1-0.2-0.1-0.6-0.2-0.8c-4-6.7-19.9-9.5-39.6-0.7c-20.4,9.1-18.9,21.6-18.9,21.6l44,95.7   c1.2,3.3,6.8,4.9,6.8,4.9c32.4,9.3,41.4,21.6,44.9,26.7c3.5,5.1,6.1,3.2,6.1,3.2s-21.1-60.4-21.1-60.4c-0.2-0.5-2-0.9-2.5-1.1   c-1.1-0.5-2-1.3-2.8-2.3c-1.8-2-3.1-4.5-4-7c-0.4-1.3-0.9-2.7-1-4.1c-0.1-1.2,0.2-2.5,1.1-3.4c1.2-1.3,3.2-1.4,4.9-1   c3.6,1,6.3,3.9,7.6,7.3c0.7,1.7,1.1,3.6,1.1,5.4c0,0.9,0,1.8-0.3,2.7c-0.1,0.6-1.2,1.9-1,2.4c0,0,19.6,57.1,19.6,57.1   c-0.1,0,0.4,1.3,1,3.4c-0.1-0.5,1.9-1.2,2.3-1.4C-307.2,1694.3-306.9,1694.1-306.7,1693.9z"
       id="path27" /><path
       class="st2"
       d="M-388.3,1451.5C-388.3,1451.5-388.3,1451.5-388.3,1451.5C-388.3,1451.5-388.3,1451.5-388.3,1451.5   C-388.3,1451.5-388.3,1451.5-388.3,1451.5z"
       id="path29" /><path
       class="st2"
       d="M-466.4,1488.2C-466.3,1488.2-466.3,1488.2-466.4,1488.2c0-0.1,0-0.1,0-0.1   C-466.4,1488.2-466.4,1488.2-466.4,1488.2z"
       id="path31" /><path
       class="st2"
       d="M-392.3,1444.5c-5.8-18.1-15.9-50.3-24.3-74c-25.8-0.2-52.3-0.8-74.2,15.2c-8.9,6.6-16.2,14.7-22.3,23.8   c0,0.1,0,0.2-0.1,0.3c6.4,11.3,15.4,26.7,24.2,40c6.9,10.4,13.4,21.7,18.6,31.3c0,0,0,0.1,0,0.1c7.3-10.3,16.1-18.8,26.7-25   C-428.5,1447.3-411.1,1443.7-392.3,1444.5C-392.3,1444.5-392.3,1444.5-392.3,1444.5z"
       id="path33" /><g
       id="g35"><path
         class="st2"
         d="M-384.9,1462c-0.8-2.4-2-6-3.4-10.5c-4-0.2-8-0.2-11.8,0.1l11.1,31.1l-10.6-12.8l-0.6-18.3    c-2.4,0.1-4.8,0.4-7.1,0.7l11.2,31.3l-10.6-12.9l-0.6-18.3c-11.6,1.5-22.4,5.1-32.3,10.9c-10.6,6.2-19.5,14.7-26.7,25    c6.1,11.2,10.4,20.1,11.5,22.6c0.6,1.3,1.5,4.5,2.6,8.3c7.3-10.3,16.2-18.8,26.8-25c15.1-8.9,32.5-12.6,51.3-11.7    C-378.8,1475.2-382.9,1467.8-384.9,1462z"
         id="path37" /><polygon
         class="st2"
         points="-407.3,1452.3 -407.3,1452.3 -407.3,1452.3   "
         id="polygon39" /><polygon
         class="st2"
         points="-400.1,1451.6 -400.1,1451.6 -400.1,1451.6   "
         id="polygon41" /></g></g><text
     transform="matrix(1 0 0 1 -444.8535 1604.6743)"
     class="st1 st3 st4"
     id="text43">A</text>
</svg>