<svg id="Layer_1" data-name="Layer 1" xmlns="http://www.w3.org/2000/svg" viewBox="0 0 512 512"><defs><style>.cls-1{fill:#e6e7e8;}.cls-2,.cls-6{fill:#e1a18b;}.cls-3{font-size:111.49px;font-family:NexaBold, Nexa Bold;}.cls-3,.cls-5{fill:#fff;}.cls-4{fill:none;}.cls-4,.cls-6{stroke:#231f20;stroke-linecap:round;stroke-linejoin:round;stroke-width:18px;}</style></defs><title>icon collection2</title><path class="cls-1" d="M412.57,133.55v298.8c0,9.16-9.08,16.61-20.23,16.61H119.66c-11.15,0-20.23-7.46-20.23-16.61V79.65c0-9.16,9.08-16.61,20.23-16.61H326.72Z"/><rect class="cls-2" x="99.43" y="312.6" width="313.13" height="136.36" rx="0.82" ry="0.82"/><text class="cls-3" transform="translate(132.79 411) scale(0.79 1)">HTML</text><path class="cls-4" d="M412.57,133.55v298.8c0,9.16-9.08,16.61-20.23,16.61H119.66c-11.15,0-20.23-7.46-20.23-16.61V79.65c0-9.16,9.08-16.61,20.23-16.61H326.72Z"/><path class="cls-5" d="M264.45,125,217.72,295.9a4.41,4.41,0,0,0,4.25,5.57h25.87a4.41,4.41,0,0,0,4.25-3.24L299,127.36a4.41,4.41,0,0,0-4.25-5.58h-26A4.41,4.41,0,0,0,264.45,125Z"/><path class="cls-5" d="M195.78,163.27l-16-22.76a4.41,4.41,0,0,0-7.21,0l-46.64,66.37a4.41,4.41,0,0,0-.8,2.54v4.41a4.41,4.41,0,0,0,.8,2.54l46.64,66.36a4.41,4.41,0,0,0,7.21,0l16-22.76a4.41,4.41,0,0,0,.81-2.54v-1.78a4.41,4.41,0,0,0-.85-2.6l-28.19-38.7a4.41,4.41,0,0,1,0-5.18l28.21-39a4.41,4.41,0,0,0,.84-2.59v-1.79A4.41,4.41,0,0,0,195.78,163.27Z"/><path class="cls-5" d="M332.3,140.51l-16.07,22.76a4.41,4.41,0,0,0-.81,2.54v1.79a4.41,4.41,0,0,0,.84,2.59l28.22,39a4.41,4.41,0,0,1,0,5.18l-28.21,38.7a4.41,4.41,0,0,0-.85,2.6v1.78a4.41,4.41,0,0,0,.81,2.54l16.07,22.76a4.41,4.41,0,0,0,7.21,0l46.62-66.36a4.41,4.41,0,0,0,.8-2.54v-4.41a4.41,4.41,0,0,0-.8-2.54l-46.62-66.37A4.41,4.41,0,0,0,332.3,140.51Z"/><path class="cls-6" d="M412.57,135.71h-64c-12.1,0-21.82-8.22-21.82-18.47V63Z"/></svg>