<svg id="Layer_1" data-name="Layer 1" xmlns="http://www.w3.org/2000/svg" viewBox="0 0 512 512"><defs><style>.cls-1{fill:#e6e7e8;}.cls-2,.cls-9{fill:#add0a9;}.cls-3{font-size:111.49px;fill:#fff;font-family:NexaBold, Nexa Bold;}.cls-4{fill:#57c8f3;}.cls-5{fill:#2d9c6b;}.cls-6{fill:#3cb37b;}.cls-7{fill:#fde82e;}.cls-8{fill:none;}.cls-8,.cls-9{stroke:#231f20;stroke-linecap:round;stroke-linejoin:round;stroke-width:18px;}</style></defs><title>icon collection2</title><path class="cls-1" d="M412.57,133.55v298.8c0,9.16-9.08,16.61-20.23,16.61H119.66c-11.15,0-20.23-7.46-20.23-16.61V79.65c0-9.16,9.08-16.61,20.23-16.61H326.72Z"/><rect class="cls-2" x="99.43" y="312.6" width="313.13" height="136.36" rx="0.82" ry="0.82"/><text class="cls-3" transform="translate(161.67 411) scale(0.79 1)">SVG</text><rect class="cls-4" x="131.99" y="130.94" width="248.02" height="164.79"/><polygon class="cls-5" points="234.59 294.99 141.27 294.99 187.93 233.54 234.59 172.09 281.24 233.54 327.9 294.99 234.59 294.99"/><polygon class="cls-6" points="322.48 294.99 273.32 294.99 297.9 259.05 322.48 223.11 347.06 259.05 371.63 294.99 322.48 294.99"/><circle class="cls-7" cx="300.13" cy="185.87" r="22.72"/><path class="cls-8" d="M412.57,133.55v298.8c0,9.16-9.08,16.61-20.23,16.61H119.66c-11.15,0-20.23-7.46-20.23-16.61V79.65c0-9.16,9.08-16.61,20.23-16.61H326.72Z"/><path class="cls-9" d="M412.57,135.71h-64c-12.1,0-21.82-8.22-21.82-18.47V63Z"/></svg>