<svg id="6d3345a0-38e4-4b3c-be2e-4a8702e9797e" data-name="icon" xmlns="http://www.w3.org/2000/svg" viewBox="0 0 512 512"><title>icon_collection</title><path d="M412.57,133.55v298.8c0,9.16-9.08,16.61-20.23,16.61H119.66c-11.15,0-20.23-7.46-20.23-16.61V79.65c0-9.16,9.08-16.61,20.23-16.61H326.72Z" style="fill:#e6e7e8"/><rect x="99.43" y="312.6" width="313.13" height="136.36" rx="0.82" ry="0.82" style="fill:#1b75bb"/><path d="M186.94,346.33H167.39V332.95h50.73v13.38H198.57V411H186.94Z" style="fill:#fff"/><path d="M263.21,351.79c-2.11-4.46-7.93-8.7-14.62-8.7-8.63,0-12.77,4.57-12.77,10.37,0,6.8,6.34,8.7,13.74,9.81,12.86,2,24.84,6.24,24.84,24.86,0,17.39-12.15,24.86-25.89,24.86-12.59,0-22.28-4.91-26.86-19.18l9.69-6.36c2.73,8.58,9.86,12.38,17.35,12.38,7.31,0,14.18-3.23,14.18-11.71,0-7.36-6.08-10.37-14.27-11.48-12.59-1.9-24.22-6.13-24.22-23.64,0-16.06,12.51-22.63,23.87-22.75,9.6,0,19.55,3.46,24.22,15.5Z" style="fill:#fff"/><path d="M316.85,411.33H304.79l-25.63-78.38h13l18.58,60.76,18.67-60.76h13Z" style="fill:#fff"/><path d="M185.31,126.25H148.48a4,4,0,0,1,0-8h36.83a4,4,0,0,1,0,8Z" style="fill:#6d6e70"/><path d="M244.71,126.25H207.88a4,4,0,0,1,0-8h36.83a4,4,0,0,1,0,8Z" style="fill:#6d6e70"/><path d="M304.12,126.75H267.29a4,4,0,0,1,0-8h36.83a4,4,0,0,1,0,8Z" style="fill:#6d6e70"/><path d="M185.31,147.65H148.48a4,4,0,0,1,0-8h36.83a4,4,0,0,1,0,8Z" style="fill:#6d6e70"/><path d="M244.71,147.65H207.88a4,4,0,0,1,0-8h36.83a4,4,0,0,1,0,8Z" style="fill:#6d6e70"/><path d="M304.12,148.15H267.29a4,4,0,0,1,0-8h36.83a4,4,0,0,1,0,8Z" style="fill:#6d6e70"/><path d="M185.31,169.06H148.48a4,4,0,0,1,0-8h36.83a4,4,0,0,1,0,8Z" style="fill:#6d6e70"/><path d="M244.71,169.06H207.88a4,4,0,0,1,0-8h36.83a4,4,0,0,1,0,8Z" style="fill:#6d6e70"/><path d="M304.12,169.56H267.29a4,4,0,0,1,0-8h36.83a4,4,0,0,1,0,8Z" style="fill:#6d6e70"/><path d="M363.52,169.56H326.69a4,4,0,0,1,0-8h36.83a4,4,0,0,1,0,8Z" style="fill:#6d6e70"/><path d="M185.31,190.46H148.48a4,4,0,0,1,0-8h36.83a4,4,0,0,1,0,8Z" style="fill:#6d6e70"/><path d="M244.71,190.46H207.88a4,4,0,0,1,0-8h36.83a4,4,0,0,1,0,8Z" style="fill:#6d6e70"/><path d="M304.12,191H267.29a4,4,0,0,1,0-8h36.83a4,4,0,0,1,0,8Z" style="fill:#6d6e70"/><path d="M363.52,191H326.69a4,4,0,1,1,0-8h36.83a4,4,0,1,1,0,8Z" style="fill:#6d6e70"/><path d="M185.31,211.86H148.48a4,4,0,0,1,0-8h36.83a4,4,0,0,1,0,8Z" style="fill:#6d6e70"/><path d="M244.71,211.86H207.88a4,4,0,0,1,0-8h36.83a4,4,0,0,1,0,8Z" style="fill:#6d6e70"/><path d="M304.12,212.36H267.29a4,4,0,0,1,0-8h36.83a4,4,0,0,1,0,8Z" style="fill:#6d6e70"/><path d="M363.52,212.36H326.69a4,4,0,0,1,0-8h36.83a4,4,0,0,1,0,8Z" style="fill:#6d6e70"/><path d="M185.31,233.26H148.48a4,4,0,0,1,0-8h36.83a4,4,0,0,1,0,8Z" style="fill:#6d6e70"/><path d="M244.71,233.26H207.88a4,4,0,0,1,0-8h36.83a4,4,0,0,1,0,8Z" style="fill:#6d6e70"/><path d="M304.12,233.76H267.29a4,4,0,0,1,0-8h36.83a4,4,0,1,1,0,8Z" style="fill:#6d6e70"/><path d="M363.52,233.76H326.69a4,4,0,1,1,0-8h36.83a4,4,0,1,1,0,8Z" style="fill:#6d6e70"/><path d="M185.31,254.67H148.48a4,4,0,0,1,0-8h36.83a4,4,0,0,1,0,8Z" style="fill:#6d6e70"/><path d="M244.71,254.67H207.88a4,4,0,0,1,0-8h36.83a4,4,0,0,1,0,8Z" style="fill:#6d6e70"/><path d="M304.12,255.16H267.29a4,4,0,0,1,0-8h36.83a4,4,0,0,1,0,8Z" style="fill:#6d6e70"/><path d="M363.52,255.16H326.69a4,4,0,0,1,0-8h36.83a4,4,0,0,1,0,8Z" style="fill:#6d6e70"/><path d="M185.31,276.07H148.48a4,4,0,0,1,0-8h36.83a4,4,0,1,1,0,8Z" style="fill:#6d6e70"/><path d="M244.71,276.07H207.88a4,4,0,1,1,0-8h36.83a4,4,0,1,1,0,8Z" style="fill:#6d6e70"/><path d="M304.12,276.57H267.29a4,4,0,1,1,0-8h36.83a4,4,0,1,1,0,8Z" style="fill:#6d6e70"/><path d="M363.52,276.57H326.69a4,4,0,1,1,0-8h36.83a4,4,0,1,1,0,8Z" style="fill:#6d6e70"/><path d="M185.31,297.47H148.48a4,4,0,0,1,0-8h36.83a4,4,0,1,1,0,8Z" style="fill:#6d6e70"/><path d="M244.71,297.47H207.88a4,4,0,1,1,0-8h36.83a4,4,0,1,1,0,8Z" style="fill:#6d6e70"/><path d="M304.12,298H267.29a4,4,0,0,1,0-8h36.83a4,4,0,0,1,0,8Z" style="fill:#6d6e70"/><path d="M363.52,298H326.69a4,4,0,0,1,0-8h36.83a4,4,0,0,1,0,8Z" style="fill:#6d6e70"/><path d="M392.34,458H119.66c-16.12,0-29.23-11.49-29.23-25.61V79.65C90.43,65.53,103.55,54,119.66,54H326.72a9,9,0,0,1,5.71,2l85.85,70.51a9,9,0,0,1,3.29,7v298.8C421.57,446.47,408.45,458,392.34,458ZM119.66,72c-6.62,0-11.23,4-11.23,7.61v352.7c0,3.6,4.61,7.61,11.23,7.61H392.34c6.62,0,11.23-4,11.23-7.61V137.81L323.49,72Z" style="fill:#231f20"/><path d="M412.57,135.71h-64c-12.1,0-21.82-8.22-21.82-18.47V63Z" style="fill:#1b75bb"/><path d="M412.57,144.71h-64c-17,0-30.82-12.32-30.82-27.47V63a9,9,0,0,1,14.81-6.87l85.85,72.67a9,9,0,0,1-5.81,15.87ZM335.72,82.45v34.79c0,5.22,5.75,9.47,12.82,9.47H388Z" style="fill:#231f20"/></svg>