<svg id="43b6c070-a684-46ed-afe4-741eb4fc6a81" data-name="icon" xmlns="http://www.w3.org/2000/svg" viewBox="0 0 512 512"><title>icon_collection</title><path d="M412.57,133.55v298.8c0,9.16-9.08,16.61-20.23,16.61H119.66c-11.15,0-20.23-7.46-20.23-16.61V79.65c0-9.16,9.08-16.61,20.23-16.61H326.72Z" style="fill:#e6e7e8"/><rect x="99.43" y="312.6" width="313.13" height="136.36" rx="0.82" ry="0.82" style="fill:#add0a9"/><path d="M204,351.79c-2.11-4.46-7.93-8.7-14.62-8.7-8.63,0-12.77,4.57-12.77,10.37,0,6.8,6.34,8.7,13.74,9.81,12.86,2,24.84,6.24,24.84,24.86,0,17.39-12.15,24.86-25.89,24.86-12.59,0-22.28-4.91-26.86-19.18l9.69-6.36c2.73,8.58,9.86,12.38,17.35,12.38,7.31,0,14.18-3.23,14.18-11.71,0-7.36-6.08-10.37-14.27-11.48-12.59-1.9-24.22-6.13-24.22-23.64,0-16.06,12.51-22.63,23.87-22.75,9.6,0,19.55,3.46,24.22,15.5Z" style="fill:#fff"/><path d="M257.67,411.33H245.6L220,333h13l18.58,60.76L270.26,333h13Z" style="fill:#fff"/><path d="M336.23,352a21.18,21.18,0,0,0-15.68-7.8c-13.21,0-21.23,12.71-21.23,28.77,0,12.82,5.9,26.09,21.23,26.09,4.84,0,9.07-1.34,13.92-6.24V379H318.71V365.84h26.42v32.89c-6.08,8.81-13.74,14-24.57,14-23.16,0-32.59-19.29-32.59-39.8,0-22,10.83-42.26,32.59-42.26,8.28,0,16.56,4,22.9,11.93Z" style="fill:#fff"/><rect x="131.99" y="130.94" width="248.02" height="164.79" style="fill:#57c8f3"/><polygon points="234.59 294.99 141.27 294.99 187.93 233.54 234.59 172.09 281.24 233.54 327.9 294.99 234.59 294.99" style="fill:#2d9c6b"/><polygon points="322.48 294.99 273.32 294.99 297.9 259.05 322.48 223.11 347.06 259.05 371.63 294.99 322.48 294.99" style="fill:#3cb37b"/><circle cx="300.13" cy="185.87" r="22.72" style="fill:#fde82e"/><path d="M392.34,458H119.66c-16.12,0-29.23-11.49-29.23-25.61V79.65C90.43,65.53,103.55,54,119.66,54H326.72a9,9,0,0,1,5.71,2l85.85,70.51a9,9,0,0,1,3.29,7v298.8C421.57,446.47,408.45,458,392.34,458ZM119.66,72c-6.62,0-11.23,4-11.23,7.61v352.7c0,3.6,4.61,7.61,11.23,7.61H392.34c6.62,0,11.23-4,11.23-7.61V137.8L323.49,72Z" style="fill:#231f20"/><path d="M412.57,135.71h-64c-12.1,0-21.82-8.22-21.82-18.47V63Z" style="fill:#add0a9"/><path d="M412.57,144.71h-64c-17,0-30.82-12.32-30.82-27.47V63a9,9,0,0,1,14.81-6.87l85.85,72.67a9,9,0,0,1-5.81,15.87ZM335.72,82.45v34.79c0,5.22,5.75,9.47,12.82,9.47H388Z" style="fill:#231f20"/></svg>