<svg id="eff2d903-c67d-4489-87dc-527bd8aa86b4" data-name="icon" xmlns="http://www.w3.org/2000/svg" viewBox="0 0 512 512"><title>icon_collection</title><path d="M412.57,133.55v298.8c0,9.16-9.08,16.61-20.23,16.61H119.66c-11.15,0-20.23-7.46-20.23-16.61V79.65c0-9.16,9.08-16.61,20.23-16.61H326.72Z" style="fill:#e6e7e8"/><path d="M192.45,295.06c-22.32,0-35.12-12.24-35.12-33.59a95,95,0,0,1,1.84-17l.34-3.1a98.37,98.37,0,0,0,.87-11c0-4.2-.53-6.76-7.89-6.76H145V199h7.53c7.7,0,7.77-2.41,7.9-6.78a102.59,102.59,0,0,0-1.45-14.46,127,127,0,0,1-1.61-17.09c0-20.32,13.2-32.45,35.3-32.45H204v25.5H193.2c-5.75.1-7.7,1.39-7.7,8.85a73.47,73.47,0,0,0,.89,9.65l.38,2.92a92.94,92.94,0,0,1,1.59,15.4c.13,8.75-2.34,15.83-7.14,20.82,4,4.28,7.14,10.82,7.14,20.85A96.14,96.14,0,0,1,186.73,248l-.34,2.6a75.41,75.41,0,0,0-.89,9.92c0,7.66,2.31,8.93,7.82,9H204v25.51Z" style="fill:#fff"/><path d="M152.48,206.48c13.32,0,15.22-7.42,15.42-14.08a108,108,0,0,0-1.53-15.79,120.71,120.71,0,0,1-1.52-16c0-17.51,11.61-24.92,27.77-24.92h3.81v10.46H193.2C182,146.36,178,152.26,178,162.54A112.08,112.08,0,0,0,179.31,176a88.32,88.32,0,0,1,1.53,14.46c.18,12.18-5.34,18.27-13.89,20.55v.38c8.55,2.28,13.89,8.56,13.89,20.74a90.64,90.64,0,0,1-1.53,14.65,111.42,111.42,0,0,0-1.33,13.7c0,10.66,4.57,16.36,15.22,16.55h3.24v10.47h-4c-15.61,0-27.59-6.85-27.59-26.06a87.48,87.48,0,0,1,1.71-15.6,149.27,149.27,0,0,0,1.33-15.41c0-6.09-1.9-14.28-15.42-14.28Z" style="fill:#fff"/><path d="M228.91,287c4.13-11.28,9.08-31.1,11-44.18l.86-5.77,35.26-3.64-3,10.64c-4.66,16.7-13.2,38.26-19,48.07l-1.9,3.2-27.43,3.14Zm26.27-78.36c-10.58,0-18.56-8.3-18.56-19.32s8.07-19.5,18.76-19.5c10.86,0,18.75,8.2,18.75,19.5S266.16,208.68,255.19,208.68Z" style="fill:#fff"/><path d="M236,289.63c4.18-11.41,9.31-31.58,11.41-45.67l18.46-1.9c-4.57,16.37-12.94,37.3-18.27,46.24Zm8.17-100.28c0-7,4.75-12,11.23-12,6.85,0,11.22,4.95,11.22,12,0,6.67-4.37,11.8-11.41,11.8C248.72,201.16,244.15,196,244.15,189.36Z" style="fill:#fff"/><path d="M300.89,295.06V269.55h10.77c5.39-.1,7.7-1.37,7.7-9a75.41,75.41,0,0,0-.89-9.92l-.38-2.84a96.39,96.39,0,0,1-1.58-15.58c-.16-10.07,3-16.63,7.07-20.91-4.11-4.33-7.07-10.87-7.07-20.76a93.94,93.94,0,0,1,1.57-15.36l.39-3a73.47,73.47,0,0,0,.89-9.65c0-7.46-1.94-8.74-7.82-8.85H300.89v-25.5h11.34c22.1,0,35.3,12.13,35.3,32.45a122.09,122.09,0,0,1-1.55,16.7,103.76,103.76,0,0,0-1.49,15.07c0,4.09,0,6.56,7.89,6.56h7.53v24.74h-7.53c-6.92,0-7.75,2.24-7.9,7a104.09,104.09,0,0,0,1.37,13.52,118.08,118.08,0,0,1,1.68,17.26c0,21.34-12.8,33.59-35.11,33.59Z" style="fill:#fff"/><path d="M352.37,216.19c-13.32,0-15.22,8.19-15.42,14.28a110.75,110.75,0,0,0,1.53,15.41,107.75,107.75,0,0,1,1.52,15.6c0,19.21-12,26.06-27.58,26.06h-4V277.07h3.24c10.65-.19,15.22-5.89,15.22-16.55a111.42,111.42,0,0,0-1.33-13.7A90.66,90.66,0,0,1,324,232.17c-.19-12.18,5.32-18.46,13.89-20.74v-.38c-8.56-2.28-13.89-8.37-13.89-20.55A88.33,88.33,0,0,1,325.54,176a112.08,112.08,0,0,0,1.33-13.51c0-10.28-4-16.17-15.22-16.37h-3.24V135.71h3.81c16.17,0,27.77,7.42,27.77,24.92a118.57,118.57,0,0,1-1.52,16A108,108,0,0,0,337,192.4c0,6.67,1.9,14.08,15.42,14.08Z" style="fill:#fff"/><rect x="99.43" y="312.6" width="313.13" height="136.36" rx="0.82" ry="0.82" style="fill:#ffcf52"/><path d="M185.63,377.66c0,20.18-10.13,34.9-27.13,34.9-15.76,0-27-11.93-27-34h11.45c0,13.38,5.11,20.18,15.59,20.18s15.5-9.25,15.5-21.07v-31H155.42V332.95h30.21Z" style="fill:#fff"/><path d="M234.6,351.79c-2.11-4.46-7.93-8.7-14.62-8.7-8.63,0-12.77,4.57-12.77,10.37,0,6.8,6.34,8.7,13.74,9.81,12.86,2,24.84,6.24,24.84,24.86,0,17.39-12.15,24.86-25.89,24.86-12.59,0-22.28-4.91-26.86-19.18l9.69-6.36c2.73,8.58,9.86,12.38,17.35,12.38,7.31,0,14.18-3.23,14.18-11.71,0-7.36-6.08-10.37-14.27-11.48-12.59-1.9-24.22-6.13-24.22-23.64,0-16.06,12.51-22.63,23.87-22.75,9.6,0,19.55,3.46,24.22,15.5Z" style="fill:#fff"/><path d="M315.36,372.42c-.18,20.18-10,40.36-31.62,40.36S252,393,252,372.53s10.39-41.14,31.71-41.14S315.54,352,315.36,372.42Zm-51.87.33c.26,12.82,5.72,26.54,20.26,26.54s20-13.83,20.17-26.65c.18-13.16-5.64-27.87-20.17-27.87S263.22,359.59,263.49,372.75Z" style="fill:#fff"/><path d="M364.42,332.84H376V411h-7.22v.11l-32.41-52.74V411H324.79v-78h9.42l30.21,48.39Z" style="fill:#fff"/><path d="M392.34,458H119.66c-16.12,0-29.23-11.49-29.23-25.61V79.65C90.43,65.53,103.55,54,119.66,54H326.72a9,9,0,0,1,5.71,2l85.85,70.51a9,9,0,0,1,3.29,7v298.8C421.57,446.47,408.45,458,392.34,458ZM119.66,72c-6.62,0-11.23,4-11.23,7.61v352.7c0,3.6,4.61,7.61,11.23,7.61H392.34c6.62,0,11.23-4,11.23-7.61V137.8L323.5,72Z" style="fill:#231f20"/><path d="M412.57,135.71h-64c-12.1,0-21.82-8.22-21.82-18.47V63Z" style="fill:#ffcf52"/><path d="M412.57,144.71h-64c-17,0-30.82-12.32-30.82-27.47V63a9,9,0,0,1,14.81-6.87l85.85,72.67a9,9,0,0,1-5.81,15.87ZM335.72,82.45v34.79c0,5.22,5.75,9.47,12.82,9.47H388Z" style="fill:#231f20"/></svg>