<?xml version="1.0" encoding="UTF-8" standalone="no"?>
<!-- Created with Inkscape (http://www.inkscape.org/) -->

<svg
   xmlns:dc="http://purl.org/dc/elements/1.1/"
   xmlns:cc="http://creativecommons.org/ns#"
   xmlns:rdf="http://www.w3.org/1999/02/22-rdf-syntax-ns#"
   xmlns:svg="http://www.w3.org/2000/svg"
   xmlns="http://www.w3.org/2000/svg"
   xmlns:sodipodi="http://sodipodi.sourceforge.net/DTD/sodipodi-0.dtd"
   xmlns:inkscape="http://www.inkscape.org/namespaces/inkscape"
   id="svg2"
   version="1.1"
   inkscape:version="0.91 r13725"
   xml:space="preserve"
   width="640"
   height="640"
   viewBox="0 0 640 640"
   sodipodi:docname="icon_legend.svg"><metadata
     id="metadata8"><rdf:RDF><cc:Work
         rdf:about=""><dc:format>image/svg+xml</dc:format><dc:type
           rdf:resource="http://purl.org/dc/dcmitype/StillImage" /><dc:title></dc:title></cc:Work></rdf:RDF></metadata><defs
     id="defs6"><clipPath
       clipPathUnits="userSpaceOnUse"
       id="clipPath16"><path
         d="M 0,512 512,512 512,0 0,0 0,512 Z"
         id="path18"
         inkscape:connector-curvature="0" /></clipPath></defs><sodipodi:namedview
     pagecolor="#ffffff"
     bordercolor="#666666"
     borderopacity="1"
     objecttolerance="10"
     gridtolerance="10"
     guidetolerance="10"
     inkscape:pageopacity="0"
     inkscape:pageshadow="2"
     inkscape:window-width="688"
     inkscape:window-height="480"
     id="namedview4"
     showgrid="false"
     inkscape:zoom="0.36875"
     inkscape:cx="320"
     inkscape:cy="320"
     inkscape:window-x="0"
     inkscape:window-y="0"
     inkscape:window-maximized="0"
     inkscape:current-layer="g10" /><g
     id="g10"
     inkscape:groupmode="layer"
     inkscape:label="icon_legend"
     transform="matrix(1.25,0,0,-1.25,0,640)"><g
       id="g12"><g
         id="g14"
         clip-path="url(#clipPath16)"><g
           id="g20"
           transform="translate(478.7389,256)"><path
             d="m 0,0 c 0,-123.015 -99.724,-222.739 -222.739,-222.739 -123.015,0 -222.739,99.724 -222.739,222.739 0,123.015 99.724,222.739 222.739,222.739 C -99.724,222.739 0,123.015 0,0 Z"
             style="fill:none;stroke:#000000;stroke-width:20;stroke-linecap:butt;stroke-linejoin:miter;stroke-miterlimit:10;stroke-dasharray:none;stroke-opacity:1"
             id="path22"
             inkscape:connector-curvature="0" /></g><path
           d="m 268.188,324.867 -24.377,0 0,118.497 24.377,0 0,-118.497 z"
           style="fill:#ed1c24;fill-opacity:1;fill-rule:nonzero;stroke:none"
           id="path24"
           inkscape:connector-curvature="0" /><g
           id="g26"
           transform="translate(249.9489,325.675)"><path
             d="M 0,0 -23.546,-6.309 -54.215,108.15 -30.669,114.46 0,0 Z"
             style="fill:#f03c22;fill-opacity:1;fill-rule:nonzero;stroke:none"
             id="path28"
             inkscape:connector-curvature="0" /></g><g
           id="g30"
           transform="translate(232.1218,321.7348)"><path
             d="M 0,0 -21.111,-12.188 -80.359,90.433 -59.249,102.622 0,0 Z"
             style="fill:#f35d20;fill-opacity:1;fill-rule:nonzero;stroke:none"
             id="path32"
             inkscape:connector-curvature="0" /></g><g
           id="g34"
           transform="translate(215.9221,313.3148)"><path
             d="m 0,0 -17.237,-17.237 -83.79,83.79 L -83.79,83.79 0,0 Z"
             style="fill:#f67d1e;fill-opacity:1;fill-rule:nonzero;stroke:none"
             id="path36"
             inkscape:connector-curvature="0" /></g><g
           id="g38"
           transform="translate(202.4535,300.9889)"><path
             d="M 0,0 -12.188,-21.111 -114.81,38.138 -102.622,59.249 0,0 Z"
             style="fill:#f99d1b;fill-opacity:1;fill-rule:nonzero;stroke:none"
             id="path40"
             inkscape:connector-curvature="0" /></g><g
           id="g42"
           transform="translate(192.6341,285.5971)"><path
             d="M 0,0 -6.309,-23.546 -120.769,7.123 -114.46,30.669 0,0 Z"
             style="fill:#fcbe19;fill-opacity:1;fill-rule:nonzero;stroke:none"
             id="path44"
             inkscape:connector-curvature="0" /></g><path
           d="m 187.133,243.812 -118.497,0 0,24.377 118.497,0 0,-24.377 z"
           style="fill:#ffde17;fill-opacity:1;fill-rule:nonzero;stroke:none"
           id="path46"
           inkscape:connector-curvature="0" /><g
           id="g48"
           transform="translate(186.325,249.9489)"><path
             d="M 0,0 6.309,-23.546 -108.15,-54.215 -114.46,-30.669 0,0 Z"
             style="fill:#d4d420;fill-opacity:1;fill-rule:nonzero;stroke:none"
             id="path50"
             inkscape:connector-curvature="0" /></g><g
           id="g52"
           transform="translate(190.2652,232.1218)"><path
             d="M 0,0 12.188,-21.111 -90.433,-80.359 -102.622,-59.249 0,0 Z"
             style="fill:#aaca28;fill-opacity:1;fill-rule:nonzero;stroke:none"
             id="path54"
             inkscape:connector-curvature="0" /></g><g
           id="g56"
           transform="translate(198.6852,215.9221)"><path
             d="m 0,0 17.237,-17.237 -83.79,-83.79 L -83.79,-83.79 0,0 Z"
             style="fill:#80c031;fill-opacity:1;fill-rule:nonzero;stroke:none"
             id="path58"
             inkscape:connector-curvature="0" /></g><g
           id="g60"
           transform="translate(211.0111,202.4535)"><path
             d="M 0,0 21.111,-12.188 -38.138,-114.81 -59.249,-102.622 0,0 Z"
             style="fill:#55b53a;fill-opacity:1;fill-rule:nonzero;stroke:none"
             id="path62"
             inkscape:connector-curvature="0" /></g><g
           id="g64"
           transform="translate(226.4029,192.6341)"><path
             d="M 0,0 23.546,-6.309 -7.123,-120.769 -30.669,-114.46 0,0 Z"
             style="fill:#2bab42;fill-opacity:1;fill-rule:nonzero;stroke:none"
             id="path66"
             inkscape:connector-curvature="0" /></g><path
           d="m 243.812,187.133 24.377,0 0,-118.497 -24.377,0 0,118.497 z"
           style="fill:#00a14b;fill-opacity:1;fill-rule:nonzero;stroke:none"
           id="path68"
           inkscape:connector-curvature="0" /><g
           id="g70"
           transform="translate(262.0511,186.325)"><path
             d="M 0,0 23.546,6.309 54.215,-108.15 30.669,-114.46 0,0 Z"
             style="fill:#069158;fill-opacity:1;fill-rule:nonzero;stroke:none"
             id="path72"
             inkscape:connector-curvature="0" /></g><g
           id="g74"
           transform="translate(279.8782,190.2652)"><path
             d="M 0,0 21.111,12.188 80.359,-90.433 59.249,-102.622 0,0 Z"
             style="fill:#0b8165;fill-opacity:1;fill-rule:nonzero;stroke:none"
             id="path76"
             inkscape:connector-curvature="0" /></g><g
           id="g78"
           transform="translate(296.0779,198.6852)"><path
             d="m 0,0 17.237,17.237 83.79,-83.79 L 83.79,-83.79 0,0 Z"
             style="fill:#117172;fill-opacity:1;fill-rule:nonzero;stroke:none"
             id="path80"
             inkscape:connector-curvature="0" /></g><g
           id="g82"
           transform="translate(309.5465,211.0111)"><path
             d="M 0,0 12.188,21.111 114.81,-38.138 102.622,-59.249 0,0 Z"
             style="fill:#166080;fill-opacity:1;fill-rule:nonzero;stroke:none"
             id="path84"
             inkscape:connector-curvature="0" /></g><g
           id="g86"
           transform="translate(319.3659,226.4029)"><path
             d="M 0,0 6.309,23.546 120.769,-7.123 114.46,-30.669 0,0 Z"
             style="fill:#1b508d;fill-opacity:1;fill-rule:nonzero;stroke:none"
             id="path88"
             inkscape:connector-curvature="0" /></g><path
           d="m 324.867,268.188 118.497,0 0,-24.377 -118.497,0 0,24.377 z"
           style="fill:#21409a;fill-opacity:1;fill-rule:nonzero;stroke:none"
           id="path90"
           inkscape:connector-curvature="0" /><g
           id="g92"
           transform="translate(325.675,262.0511)"><path
             d="M 0,0 -6.309,23.546 108.15,54.215 114.46,30.669 0,0 Z"
             style="fill:#21409a;fill-opacity:1;fill-rule:nonzero;stroke:none"
             id="path94"
             inkscape:connector-curvature="0" /></g><g
           id="g96"
           transform="translate(321.7348,279.8782)"><path
             d="M 0,0 -12.188,21.111 90.433,80.359 102.622,59.249 0,0 Z"
             style="fill:#404099;fill-opacity:1;fill-rule:nonzero;stroke:none"
             id="path98"
             inkscape:connector-curvature="0" /></g><g
           id="g100"
           transform="translate(313.3148,296.078)"><path
             d="m 0,0 -17.237,17.237 83.79,83.79 L 83.79,83.79 0,0 Z"
             style="fill:#504099;fill-opacity:1;fill-rule:nonzero;stroke:none"
             id="path102"
             inkscape:connector-curvature="0" /></g><g
           id="g104"
           transform="translate(300.9889,309.5465)"><path
             d="M 0,0 -21.111,12.188 38.138,114.81 59.249,102.622 0,0 Z"
             style="fill:#603f99;fill-opacity:1;fill-rule:nonzero;stroke:none"
             id="path106"
             inkscape:connector-curvature="0" /></g><g
           id="g108"
           transform="translate(285.5971,319.3659)"><path
             d="M 0,0 -23.546,6.309 7.123,120.769 30.669,114.46 0,0 Z"
             style="fill:#7f3f98;fill-opacity:1;fill-rule:nonzero;stroke:none"
             id="path110"
             inkscape:connector-curvature="0" /></g></g></g><text
       transform="matrix(1,0,0,-1,145.6431,154.1777)"
       style="font-variant:normal;font-weight:bold;font-stretch:normal;font-size:341.66351318px;font-family:'Script MT Bold';-inkscape-font-specification:ScriptMTBold;writing-mode:lr-tb;fill:#000000;fill-opacity:1;fill-rule:nonzero;stroke:none"
       id="text112"><tspan
         x="0"
         y="0"
         id="tspan114">L</tspan></text>
</g></svg>