<svg id="7cef9508-710a-4b46-a522-a18a1f5696a0" data-name="icon" xmlns="http://www.w3.org/2000/svg" viewBox="0 0 512 512"><title>icon_collection</title><path d="M256,488.74A232.74,232.74,0,0,1,91.43,91.43,232.74,232.74,0,1,1,420.57,420.57,231.21,231.21,0,0,1,256,488.74Zm0-445.48C138.7,43.26,43.26,138.7,43.26,256S138.7,468.74,256,468.74,468.74,373.31,468.74,256,373.3,43.26,256,43.26Z"/><path d="M256,177.13a79.37,79.37,0,0,1,8.39.45l3.8-14.16V76.82A8.18,8.18,0,0,0,260,68.64h-8a8.18,8.18,0,0,0-8.18,8.18v86.6l3.8,14.16A79.37,79.37,0,0,1,256,177.13Z" style="fill:#ed1c24"/><path d="M235.59,179.82a79.37,79.37,0,0,1,8.22-1.74V163.42L221.4,79.77a8.18,8.18,0,0,0-10-5.79l-7.74,2.07a8.18,8.18,0,0,0-5.79,10l22.41,83.65,7.33,12.7A79.37,79.37,0,0,1,235.59,179.82Z" style="fill:#f03c22"/><path d="M216.57,187.7a79.37,79.37,0,0,1,7.49-3.81l-3.8-14.16-43.3-75a8.18,8.18,0,0,0-11.18-3l-6.94,4a8.18,8.18,0,0,0-3,11.18l43.3,75,10.37,10.37A79.37,79.37,0,0,1,216.57,187.7Z" style="fill:#f35d20"/><path d="M200.23,200.23a79.37,79.37,0,0,1,6.25-5.62l-7.33-12.7-61.24-61.24a8.18,8.18,0,0,0-11.57,0l-5.67,5.67a8.18,8.18,0,0,0,0,11.57l61.24,61.24,12.7,7.33A79.37,79.37,0,0,1,200.23,200.23Z" style="fill:#f67d1e"/><path d="M187.7,216.57a79.37,79.37,0,0,1,4.59-7l-10.37-10.37-75-43.3a8.18,8.18,0,0,0-11.18,3l-4,6.94a8.18,8.18,0,0,0,3,11.18l75,43.3,14.16,3.8A79.37,79.37,0,0,1,187.7,216.57Z" style="fill:#f99d1b"/><path d="M179.82,235.59a79.37,79.37,0,0,1,2.61-8l-12.7-7.33L86.08,197.85a8.18,8.18,0,0,0-10,5.79L74,211.38a8.18,8.18,0,0,0,5.79,10l83.65,22.41h14.66A79.37,79.37,0,0,1,179.82,235.59Z" style="fill:#fcbe19"/><path d="M177.13,256a79.37,79.37,0,0,1,.45-8.39l-14.16-3.8H76.82A8.18,8.18,0,0,0,68.64,252v8a8.18,8.18,0,0,0,8.18,8.18h86.6l14.16-3.8A79.37,79.37,0,0,1,177.13,256Z" style="fill:#ffde17"/><path d="M179.82,276.41a79.37,79.37,0,0,1-1.74-8.22H163.42L79.77,290.6a8.18,8.18,0,0,0-5.79,10l2.07,7.74a8.18,8.18,0,0,0,10,5.79l83.65-22.41,12.7-7.33A79.37,79.37,0,0,1,179.82,276.41Z" style="fill:#d4d420"/><path d="M187.7,295.43a79.37,79.37,0,0,1-3.81-7.49l-14.16,3.8-75,43.3a8.18,8.18,0,0,0-3,11.18l4,6.94a8.18,8.18,0,0,0,11.18,3l75-43.3,10.37-10.37A79.37,79.37,0,0,1,187.7,295.43Z" style="fill:#aaca28"/><path d="M200.23,311.77a79.37,79.37,0,0,1-5.62-6.25l-12.7,7.33-61.24,61.24a8.18,8.18,0,0,0,0,11.57l5.67,5.67a8.18,8.18,0,0,0,11.57,0l61.24-61.24,7.33-12.7A79.37,79.37,0,0,1,200.23,311.77Z" style="fill:#80c031"/><path d="M216.57,324.3a79.37,79.37,0,0,1-7-4.59l-10.37,10.37-43.3,75a8.18,8.18,0,0,0,3,11.18l6.94,4a8.18,8.18,0,0,0,11.18-3l43.3-75,3.8-14.16A79.37,79.37,0,0,1,216.57,324.3Z" style="fill:#55b53a"/><path d="M235.59,332.18a79.37,79.37,0,0,1-8-2.61l-7.33,12.7-22.41,83.65a8.18,8.18,0,0,0,5.79,10l7.74,2.07a8.18,8.18,0,0,0,10-5.79l22.41-83.65V333.92A79.37,79.37,0,0,1,235.59,332.18Z" style="fill:#2bab42"/><path d="M256,334.87a79.37,79.37,0,0,1-8.39-.45l-3.8,14.16v86.6a8.18,8.18,0,0,0,8.18,8.18h8a8.18,8.18,0,0,0,8.18-8.18v-86.6l-3.8-14.16A79.37,79.37,0,0,1,256,334.87Z" style="fill:#00a14b"/><path d="M276.41,332.18a79.37,79.37,0,0,1-8.22,1.74v14.66l22.41,83.65a8.18,8.18,0,0,0,10,5.79l7.74-2.07a8.18,8.18,0,0,0,5.79-10l-22.41-83.65-7.33-12.7A79.37,79.37,0,0,1,276.41,332.18Z" style="fill:#069158"/><path d="M295.43,324.3a79.37,79.37,0,0,1-7.49,3.81l3.8,14.16,43.3,75a8.18,8.18,0,0,0,11.18,3l6.94-4a8.18,8.18,0,0,0,3-11.18l-43.3-75-10.37-10.37A79.37,79.37,0,0,1,295.43,324.3Z" style="fill:#0b8165"/><path d="M311.77,311.77a79.37,79.37,0,0,1-6.25,5.62l7.33,12.7,61.24,61.24a8.18,8.18,0,0,0,11.57,0l5.67-5.67a8.18,8.18,0,0,0,0-11.57l-61.24-61.24-12.7-7.33A79.37,79.37,0,0,1,311.77,311.77Z" style="fill:#117172"/><path d="M324.3,295.43a79.37,79.37,0,0,1-4.59,7l10.37,10.37,75,43.3a8.18,8.18,0,0,0,11.18-3l4-6.94a8.18,8.18,0,0,0-3-11.18l-75-43.3-14.16-3.8A79.37,79.37,0,0,1,324.3,295.43Z" style="fill:#166080"/><path d="M332.18,276.41a79.37,79.37,0,0,1-2.61,8l12.7,7.33,83.65,22.41a8.18,8.18,0,0,0,10-5.79l2.07-7.74a8.18,8.18,0,0,0-5.79-10l-83.65-22.41H333.92A79.37,79.37,0,0,1,332.18,276.41Z" style="fill:#1b508d"/><path d="M334.87,256a79.37,79.37,0,0,1-.45,8.39l14.16,3.8h86.6a8.18,8.18,0,0,0,8.18-8.18v-8a8.18,8.18,0,0,0-8.18-8.18h-86.6l-14.16,3.8A79.37,79.37,0,0,1,334.87,256Z" style="fill:#21409a"/><path d="M332.18,235.59a79.37,79.37,0,0,1,1.74,8.22h14.66l83.65-22.41a8.18,8.18,0,0,0,5.79-10l-2.07-7.74a8.18,8.18,0,0,0-10-5.79l-83.65,22.41-12.7,7.33A79.37,79.37,0,0,1,332.18,235.59Z" style="fill:#21409a"/><path d="M324.3,216.57a79.37,79.37,0,0,1,3.81,7.49l14.16-3.8,75-43.3a8.18,8.18,0,0,0,3-11.18l-4-6.94a8.18,8.18,0,0,0-11.18-3l-75,43.3-10.37,10.37A79.37,79.37,0,0,1,324.3,216.57Z" style="fill:#404099"/><path d="M311.77,200.23a79.37,79.37,0,0,1,5.62,6.25l12.7-7.33,61.24-61.24a8.18,8.18,0,0,0,0-11.57l-5.67-5.67a8.18,8.18,0,0,0-11.57,0l-61.24,61.24-7.33,12.7A79.37,79.37,0,0,1,311.77,200.23Z" style="fill:#404099"/><path d="M295.43,187.7a79.37,79.37,0,0,1,7,4.59l10.37-10.37,43.3-75a8.18,8.18,0,0,0-3-11.18l-6.94-4a8.18,8.18,0,0,0-11.18,3l-43.3,75-3.8,14.16A79.37,79.37,0,0,1,295.43,187.7Z" style="fill:#603f99"/><path d="M276.41,179.82a79.37,79.37,0,0,1,8,2.61l7.33-12.7,22.41-83.65a8.18,8.18,0,0,0-5.79-10L300.62,74a8.18,8.18,0,0,0-10,5.79l-22.41,83.65v14.66A79.37,79.37,0,0,1,276.41,179.82Z" style="fill:#7f3f98"/><path d="M166.5,366.66a19.14,19.14,0,0,1-14-5.64,18.73,18.73,0,0,1-5.63-13.71c0-10,4.84-18.87,14.37-26.23,8.52-6.58,20.39-11.25,35.3-13.89,5.23-7.5,8.65-14.86,10.16-21.91,1.72-8,3.08-21.51,4.07-40.17,1.94-40.08,12.92-72.05,32.65-95,20-23.24,42.16-35,65.94-35,16.64,0,30.54,5.4,41.3,16s16.25,24.4,16.25,40.84c0,18.53-5.58,35-16.59,49-11.29,14.33-24.62,21.59-39.63,21.59-8.31,0-15-2.4-20-7.15s-7.55-11.32-7.55-19.37a48.64,48.64,0,0,1,2.2-13.42l2.57-8.77,6,6.89a9.42,9.42,0,0,0,7.57,3.46c5.78,0,10.89-3.66,15.62-11.18,5.14-8.16,7.74-18.09,7.74-29.53,0-8.37-1.83-14.93-5.43-19.51-3.36-4.27-7.91-6.35-13.9-6.35-7.54,0-13.2,2.58-17.29,7.89A53.8,53.8,0,0,0,278.54,167c-2,8.91-4.08,23.61-6.31,43.69-2.29,20.61-6.18,39.17-11.57,55.18-4.5,13.36-12.24,26.61-23.06,39.5a70.7,70.7,0,0,1,14.46,2c7.1,1.82,17.33,5.27,30.41,10.27,12.32,4.71,23,7.09,31.67,7.09,16.66,0,33-8.86,48.48-26.34l8.74-9.85V323l-1.44,1.46c-27.21,27.67-55.63,41.7-84.48,41.7A91.22,91.22,0,0,1,261,362.89a191.93,191.93,0,0,1-27.78-10.7,194.62,194.62,0,0,0-24.45-9.56C193.46,358.79,179.61,366.66,166.5,366.66Z" style="fill:#fff"/><path d="M366.36,321q-39.54,40.21-80.91,40.21a85.84,85.84,0,0,1-23.11-3.09,186.1,186.1,0,0,1-27-10.43A187.07,187.07,0,0,0,207.2,337q-22.52,24.69-40.71,24.69A14.25,14.25,0,0,1,156,357.49a13.84,13.84,0,0,1-4.17-10.18q0-12.68,12.43-22.27t35.12-13.26q9.51-13,12.18-25.44t4.17-41q2.83-58.72,31.45-92t62.14-33.28q23,0,37.79,14.6T361.85,172q0,26.19-15.52,45.88t-35.7,19.69q-10.51,0-16.52-5.75t-6-15.77a43.54,43.54,0,0,1,2-12,14.4,14.4,0,0,0,11.34,5.17q11.34,0,19.85-13.51t8.51-32.2q0-14.35-6.5-22.61t-17.83-8.26q-13.67,0-21.25,9.84A58.49,58.49,0,0,0,273.66,166q-3,13.68-6.4,44.21t-11.34,54.14q-7.95,23.6-29.7,46.29,14.18-1,24.61,1.67t29.86,10.09q19.43,7.43,33.45,7.42,27.36,0,52.22-28Z" style="fill:#231f20"/><ellipse cx="178.41" cy="337.55" rx="13.62" ry="2.39" transform="translate(-162.97 166.58) rotate(-35.54)" style="fill:#fff"/></svg>