<?xml version="1.0" encoding="UTF-8" standalone="no"?>
<!-- Created with Inkscape (http://www.inkscape.org/) -->

<svg
   xmlns:dc="http://purl.org/dc/elements/1.1/"
   xmlns:cc="http://creativecommons.org/ns#"
   xmlns:rdf="http://www.w3.org/1999/02/22-rdf-syntax-ns#"
   xmlns:svg="http://www.w3.org/2000/svg"
   xmlns="http://www.w3.org/2000/svg"
   xmlns:sodipodi="http://sodipodi.sourceforge.net/DTD/sodipodi-0.dtd"
   xmlns:inkscape="http://www.inkscape.org/namespaces/inkscape"
   id="svg2"
   version="1.1"
   inkscape:version="0.91 r13725"
   xml:space="preserve"
   width="640"
   height="640"
   viewBox="0 0 640 640"
   sodipodi:docname="icon_save.svg"><metadata
     id="metadata8"><rdf:RDF><cc:Work
         rdf:about=""><dc:format>image/svg+xml</dc:format><dc:type
           rdf:resource="http://purl.org/dc/dcmitype/StillImage" /><dc:title></dc:title></cc:Work></rdf:RDF></metadata><defs
     id="defs6"><clipPath
       clipPathUnits="userSpaceOnUse"
       id="clipPath16"><path
         d="M 0,512 512,512 512,0 0,0 0,512 Z"
         id="path18"
         inkscape:connector-curvature="0" /></clipPath></defs><sodipodi:namedview
     pagecolor="#ffffff"
     bordercolor="#666666"
     borderopacity="1"
     objecttolerance="10"
     gridtolerance="10"
     guidetolerance="10"
     inkscape:pageopacity="0"
     inkscape:pageshadow="2"
     inkscape:window-width="688"
     inkscape:window-height="480"
     id="namedview4"
     showgrid="false"
     inkscape:zoom="0.36875"
     inkscape:cx="320"
     inkscape:cy="320"
     inkscape:window-x="0"
     inkscape:window-y="0"
     inkscape:window-maximized="0"
     inkscape:current-layer="g10" /><g
     id="g10"
     inkscape:groupmode="layer"
     inkscape:label="icon_save"
     transform="matrix(1.25,0,0,-1.25,0,640)"><g
       id="g12"><g
         id="g14"
         clip-path="url(#clipPath16)"><g
           id="g20"
           transform="translate(256,478.7389)"><path
             d="m 0,0 c -123.015,0 -222.739,-99.724 -222.739,-222.739 0,-123.015 99.724,-222.739 222.739,-222.739 123.015,0 222.739,99.724 222.739,222.739 C 222.739,-99.724 123.015,0 0,0 Z"
             style="fill:none;stroke:#000000;stroke-width:20;stroke-linecap:butt;stroke-linejoin:miter;stroke-miterlimit:10;stroke-dasharray:none;stroke-opacity:1"
             id="path22"
             inkscape:connector-curvature="0" /></g><g
           id="g24"
           transform="translate(339.3336,368.5001)"><path
             d="m 0,0 -70.816,0 0,-25.035 45.781,0 c 16.108,0 29.166,-13.059 29.166,-29.167 l 0,-116.596 c 0,-16.108 -13.058,-29.167 -29.166,-29.167 l -116.597,0 c -16.108,0 -29.166,13.059 -29.166,29.167 l 0,170.501 c -14.151,-2.007 -25.036,-14.164 -25.036,-28.87 l 0,-166.667 c 0,-16.108 13.059,-29.166 29.167,-29.166 L 0,-225 c 16.108,0 29.166,13.058 29.166,29.166 l 0,166.667 C 29.166,-13.058 16.108,0 0,0"
             style="fill:#000000;fill-opacity:1;fill-rule:nonzero;stroke:none"
             id="path26"
             inkscape:connector-curvature="0" /></g><g
           id="g28"
           transform="translate(243.4823,339.6301)"><path
             d="m 0,0 0,-67.636 25.035,0 0,71.471 -24.781,0 C 0.089,2.579 0,1.3 0,0"
             style="fill:#000000;fill-opacity:1;fill-rule:nonzero;stroke:none"
             id="path30"
             inkscape:connector-curvature="0" /></g><g
           id="g32"
           transform="translate(243.7366,343.4646)"><path
             d="m 0,0 24.781,0 0,25.035 C 11.881,23.206 1.7,12.94 0,0"
             style="fill:#000000;fill-opacity:1;fill-rule:nonzero;stroke:none"
             id="path34"
             inkscape:connector-curvature="0" /></g><g
           id="g36"
           transform="translate(256.1272,271.994)"><path
             d="m 0,0 29.897,0 c 4.62,0 7.029,-5.498 3.898,-8.895 L 20.997,-22.778 3.898,-41.327 c -2.1,-2.277 -5.696,-2.277 -7.796,0 l -17.099,18.549 -12.798,13.883 C -36.926,-5.498 -34.517,0 -29.897,0 L 0,0 Z"
             style="fill:#000000;fill-opacity:1;fill-rule:nonzero;stroke:none"
             id="path38"
             inkscape:connector-curvature="0" /></g><g
           id="g40"
           transform="translate(206.759,343.4647)"><path
             d="m 0,0 -7.614,0 c -1.441,0 -2.609,1.168 -2.609,2.61 l 0,19.816 c 0,1.441 1.168,2.609 2.609,2.609 l 7.614,0 c 1.441,0 2.61,-1.168 2.61,-2.609 L 2.61,2.61 C 2.61,1.168 1.441,0 0,0"
             style="fill:#000000;fill-opacity:1;fill-rule:nonzero;stroke:none"
             id="path42"
             inkscape:connector-curvature="0" /></g><g
           id="g44"
           transform="translate(168.5354,311.5191)"><path
             d="m 0,0 0,2.779 c 0,16.108 13.058,29.167 29.166,29.167 l 4.965,0 0,25.035 -30,0 c -16.108,0 -29.166,-13.058 -29.166,-29.167 L -25.035,0 0,0 Z"
             style="fill:#000000;fill-opacity:1;fill-rule:nonzero;stroke:none"
             id="path46"
             inkscape:connector-curvature="0" /></g></g></g></g></svg>