<svg id="400e2bf1-bc5b-4ab1-9ebb-da61a6d5c636" data-name="icon" xmlns="http://www.w3.org/2000/svg" viewBox="0 0 512 512"><title>icon_collection</title><path d="M412.57,133.55v298.8c0,9.16-9.08,16.61-20.23,16.61H119.66c-11.15,0-20.23-7.46-20.23-16.61V79.65c0-9.16,9.08-16.61,20.23-16.61H326.72Z" style="fill:#e6e7e8"/><rect x="99.43" y="312.6" width="313.13" height="136.36" rx="0.82" ry="0.82" style="fill:#e1a18b"/><path d="M179.12,411.11V379.56h-30.3v31.55H137.19v-78h11.63V366h30.3V333.06h11.54v78Z" style="fill:#fff"/><path d="M217.52,346.33H198V333H248.7v13.38H229.15V411H217.52Z" style="fill:#fff"/><path d="M309.47,354.47l-20.08,33.89H287.1l-19.64-34v56.75H255.83v-78h13.39l19.29,33.56,19.29-33.56h13.3v78H309.47Z" style="fill:#fff"/><path d="M343.65,333V397.4h31.71V411H332V333Z" style="fill:#fff"/><path d="M392.34,458H119.66c-16.12,0-29.23-11.49-29.23-25.61V79.65C90.43,65.53,103.55,54,119.66,54H326.72a9,9,0,0,1,5.71,2l85.85,70.51a9,9,0,0,1,3.29,7v298.8C421.57,446.47,408.45,458,392.34,458ZM119.66,72c-6.62,0-11.23,4-11.23,7.61v352.7c0,3.6,4.61,7.61,11.23,7.61H392.34c6.62,0,11.23-4,11.23-7.61V137.81L323.49,72Z" style="fill:#231f20"/><path d="M264.45,125,217.72,295.9a4.41,4.41,0,0,0,4.25,5.57h25.87a4.41,4.41,0,0,0,4.25-3.24L299,127.36a4.41,4.41,0,0,0-4.25-5.58h-26A4.41,4.41,0,0,0,264.45,125Z" style="fill:#fff"/><path d="M195.78,163.27l-16-22.76a4.41,4.41,0,0,0-7.21,0l-46.64,66.37a4.41,4.41,0,0,0-.8,2.54v4.41a4.41,4.41,0,0,0,.8,2.54l46.64,66.36a4.41,4.41,0,0,0,7.21,0l16-22.76a4.41,4.41,0,0,0,.81-2.54v-1.78a4.41,4.41,0,0,0-.85-2.6l-28.19-38.7a4.41,4.41,0,0,1,0-5.18l28.21-39a4.41,4.41,0,0,0,.84-2.59v-1.79A4.41,4.41,0,0,0,195.78,163.27Z" style="fill:#fff"/><path d="M332.3,140.51l-16.07,22.76a4.41,4.41,0,0,0-.81,2.54v1.79a4.41,4.41,0,0,0,.84,2.59l28.22,39a4.41,4.41,0,0,1,0,5.18l-28.21,38.7a4.41,4.41,0,0,0-.85,2.6v1.78a4.41,4.41,0,0,0,.81,2.54l16.07,22.76a4.41,4.41,0,0,0,7.21,0l46.62-66.36a4.41,4.41,0,0,0,.8-2.54v-4.41a4.41,4.41,0,0,0-.8-2.54l-46.62-66.37A4.41,4.41,0,0,0,332.3,140.51Z" style="fill:#fff"/><path d="M412.57,135.71h-64c-12.1,0-21.82-8.22-21.82-18.47V63Z" style="fill:#e1a18b"/><path d="M412.57,144.71h-64c-17,0-30.82-12.32-30.82-27.47V63a9,9,0,0,1,14.81-6.87l85.85,72.67a9,9,0,0,1-5.81,15.87ZM335.72,82.45v34.79c0,5.22,5.75,9.47,12.82,9.47H388Z" style="fill:#231f20"/></svg>