<svg id="581bee56-0b5e-4954-b05b-c1be762db8d9" data-name="icon" xmlns="http://www.w3.org/2000/svg" viewBox="0 0 512 512"><title>icon collection</title><path d="M256,488.74A232.74,232.74,0,0,1,91.43,91.43,232.74,232.74,0,1,1,420.57,420.57,231.22,231.22,0,0,1,256,488.74Zm0-445.48C138.7,43.26,43.26,138.7,43.26,256S138.7,468.74,256,468.74,468.74,373.31,468.74,256,373.3,43.26,256,43.26Z"/><path d="M339.33,143.5H268.52v25H314.3a29.17,29.17,0,0,1,29.17,29.17V314.3a29.17,29.17,0,0,1-29.17,29.17H197.7a29.17,29.17,0,0,1-29.17-29.17V143.8a29.17,29.17,0,0,0-25,28.87V339.33a29.17,29.17,0,0,0,29.17,29.17H339.33a29.17,29.17,0,0,0,29.17-29.17V172.67A29.17,29.17,0,0,0,339.33,143.5Z"/><path d="M243.48,172.37V240h25V168.54H243.74A29.41,29.41,0,0,0,243.48,172.37Z"/><path d="M243.74,168.54h24.78v-25A29.18,29.18,0,0,0,243.74,168.54Z"/><path d="M256.13,240H286a5.3,5.3,0,0,1,3.9,8.9l-12.8,13.88L260,281.33a5.3,5.3,0,0,1-7.8,0l-17.1-18.55-12.8-13.88a5.3,5.3,0,0,1,3.9-8.9Z"/><rect x="196.54" y="143.5" width="12.83" height="25.04" rx="2.61" ry="2.61"/><path d="M168.54,200.48V197.7a29.17,29.17,0,0,1,29.17-29.17h5v-25h-30a29.17,29.17,0,0,0-29.17,29.17v27.81Z"/></svg>