<svg id="Layer_1" data-name="Layer 1" xmlns="http://www.w3.org/2000/svg" viewBox="0 0 512 512"><defs><style>.cls-1{fill:none;stroke:#000;stroke-miterlimit:10;stroke-width:20px;}.cls-2{fill:#8c8c8c;}.cls-3{fill:#231f20;}.cls-4{fill:#fff;}</style></defs><title>icon_collection</title><circle class="cls-1" cx="256" cy="256" r="222.74"/><path class="cls-2" d="M211,286c31.78-13.1,38.58,2.79,38.58,2.79s2.84-3.37,3.08-3.77c2-3.41,1.72-7.63,1.54-11.45-.21-4.39-.16-11.22-3.15-14.75a274.15,274.15,0,0,1-17.75-25c-18.78-.88-36.18,2.78-51.32,11.68a86.43,86.43,0,0,0-26.76,25c1.34,4.9,2.52,9.84,3.84,14.74,1.79,6.62,2.94,12.9,8.18,17.84,2.35,2.21,5,4.13,7.28,6.36,2.08,2,4.26,4.16,7,5.24a24.65,24.65,0,0,0,7.89,1.74S179.22,299.12,211,286Z"/><path class="cls-2" d="M297.63,439c2-2,.92-6.13.61-8.64-.43-3.4-1-6.78-1.3-10.2-.71-9,1.5-19.67-3.1-27.94-2.55-4.6-5.84-8.74-8.49-13.28-2.84-4.88-5.49-9.87-8-14.93-5.07-10.22-9.61-20.71-13.84-31.3Q258.23,319.5,253.6,306c-1.65-4.77-3.25-9.56-4.74-14.39a3.67,3.67,0,0,0-.23-.76c-4-6.67-19.9-9.5-39.55-.73-20.39,9.1-18.93,21.59-18.93,21.59l44,95.7c1.22,3.28,6.8,4.85,6.8,4.85,32.4,9.34,41.37,21.57,44.89,26.67s6.07,3.16,6.07,3.16l-21.11-60.43c-.17-.49-2-.94-2.45-1.14a8.47,8.47,0,0,1-2.83-2.26,21,21,0,0,1-4-7,16.12,16.12,0,0,1-1-4.09,4.57,4.57,0,0,1,1.07-3.42,5,5,0,0,1,4.88-1,11.85,11.85,0,0,1,7.62,7.34,15,15,0,0,1,1.06,5.42,11,11,0,0,1-.26,2.69c-.14.55-1.16,1.91-1,2.38l19.6,57.13c-.06,0,.39,1.25,1,3.38-.13-.5,1.94-1.22,2.27-1.41A4.24,4.24,0,0,0,297.63,439Z"/><path class="cls-3" d="M216.05,196.69l0-.08,0,.08Z"/><path class="cls-3" d="M138,233.39l0,0,0-.09Z"/><path class="cls-2" d="M212,189.62c-5.81-18.11-15.87-50.35-24.31-74-25.85-.22-52.33-.83-74.16,15.24a94.3,94.3,0,0,0-22.29,23.83c0,.11,0,.21-.06.32,6.42,11.33,15.41,26.69,24.19,40,6.88,10.4,13.37,21.71,18.57,31.33l0,.09a86.49,86.49,0,0,1,26.74-25c15.13-8.89,32.52-12.56,51.3-11.68Z"/><path class="cls-2" d="M219.46,207.16c-.82-2.39-2-6-3.43-10.47a110.58,110.58,0,0,0-11.84.08l11.15,31.06-10.55-12.78-.6-18.28q-3.61.22-7.13.69l11.24,31.26L197.67,215.8l-.61-18.35a85.42,85.42,0,0,0-32.33,10.91,86.49,86.49,0,0,0-26.74,25c6.06,11.2,10.36,20.1,11.47,22.57a78,78,0,0,1,2.57,8.3,86.5,86.5,0,0,1,26.76-25c15.14-8.89,32.54-12.56,51.32-11.68C225.57,220.34,221.45,212.93,219.46,207.16Z"/><polygon class="cls-3" points="197.06 197.44 197.06 197.46 197.06 197.46 197.06 197.44"/><polygon class="cls-3" points="204.19 196.76 204.19 196.77 204.19 196.77 204.19 196.76"/><path class="cls-4" d="M324.13,359c-13.3,0-24-4.82-31.88-14.33-5.65-6.83-9.45-15.81-11.36-26.78-10.66,12.2-20.41,21.68-29.06,28.24C240.59,354.67,228.37,359,215.52,359c-16.78,0-30.42-7.31-40.54-21.73-9.74-13.86-14.67-32.43-14.67-55.17,0-26.59,6.2-54.34,18.43-82.49,12.34-28.39,30.9-51.15,55.16-67.62s54.11-24.89,88.56-24.89c25.55,0,49,3.51,69.81,10.43l3.42,1.14v16.46l-1.2,1.4c-16.06,18.75-29.74,45.51-40.66,79.52s-16.53,60.42-16.53,78c0,7.76,1.5,13.73,4.44,17.71,2.67,3.63,6.19,5.31,11.08,5.31,9.85,0,23-9.15,37.92-26.46l8.78-10.17v34.6l-1.35,1.44C371.73,344.71,346.82,359,324.13,359ZM313,129.94c-17.31,0-32.56,7.11-46.61,21.74-14.32,14.91-25.81,35-34.15,59.78-8.41,24.94-12.67,46.8-12.67,65,0,11.57,2.19,21,6.51,28,3.9,6.32,8.59,9.39,14.35,9.39,11,0,25-11.31,40.39-32.72,6.91-60.13,26.13-109.25,57.15-146.13A63.65,63.65,0,0,0,313,129.94Z"/><path d="M394.53,313.12Q356.16,354,324.13,354q-17.68,0-28-12.51t-11.51-35.7q-20.19,24.52-35.79,36.37T215.52,354q-22.69,0-36.45-19.6t-13.76-52.3q0-39,18-80.49t53.38-65.48q35.37-24,85.75-24,37.7,0,68.23,10.18v11q-24.86,29-41.62,81.25T332.3,294.1q0,13.35,5.42,20.69t15.1,7.34q17.35,0,41.71-28.19ZM346,133.28a68.13,68.13,0,0,0-33-8.34q-27.86,0-50.21,23.27t-35.28,61.64q-12.93,38.37-12.93,66.56,0,18.85,7.26,30.61t18.6,11.76q19.68,0,45.21-35.87Q296.1,188.83,346,133.28Z"/></svg>