<svg id="Layer_1" data-name="Layer 1" xmlns="http://www.w3.org/2000/svg" viewBox="0 0 512 512"><defs><style>.cls-1{fill:#e6e7e8;}.cls-2{fill:#00a14b;}.cls-3{fill:#fff;}.cls-4{fill:#57c8f3;}.cls-5{fill:#2d9c6b;}.cls-6{fill:#3cb37b;}.cls-7{fill:#fde82e;}.cls-8{fill:#231f20;}</style></defs><title>icon collection2_flat</title><path class="cls-1" d="M412.57,133.55v298.8c0,9.16-9.08,16.61-20.23,16.61H119.66c-11.15,0-20.23-7.46-20.23-16.61V79.65c0-9.16,9.08-16.61,20.23-16.61H326.72Z"/><rect class="cls-2" x="99.43" y="312.6" width="313.13" height="136.36" rx="0.82" ry="0.82"/><path class="cls-3" d="M196.1,388H178.66v23H167v-78c9.69,0,19.38-.11,29.06-.11C226.22,332.84,226.31,388,196.1,388Zm-17.44-13.49H196.1c14.88,0,14.8-27.65,0-27.65H178.66Z"/><path class="cls-3" d="M267.09,332.84h11.63V411h-7.22v.11l-32.41-52.74V411H227.45v-78h9.42l30.21,48.39Z"/><path class="cls-3" d="M335.17,352a21.18,21.18,0,0,0-15.68-7.8c-13.21,0-21.23,12.71-21.23,28.77,0,12.82,5.9,26.09,21.23,26.09,4.84,0,9.07-1.34,13.92-6.24V379H317.65V365.84h26.42v32.89c-6.08,8.81-13.74,14-24.57,14-23.16,0-32.59-19.29-32.59-39.8,0-22,10.83-42.26,32.59-42.26,8.28,0,16.56,4,22.9,11.93Z"/><rect class="cls-4" x="131.99" y="130.94" width="248.02" height="164.79"/><polygon class="cls-5" points="234.59 294.99 141.27 294.99 187.93 233.54 234.59 172.09 281.24 233.54 327.9 294.99 234.59 294.99"/><polygon class="cls-6" points="322.48 294.99 273.32 294.99 297.9 259.05 322.48 223.11 347.06 259.05 371.63 294.99 322.48 294.99"/><circle class="cls-7" cx="300.13" cy="185.87" r="22.72"/><path class="cls-8" d="M392.34,458H119.66c-16.12,0-29.23-11.49-29.23-25.61V79.65C90.43,65.53,103.55,54,119.66,54H326.72a9,9,0,0,1,5.71,2l85.85,70.51a9,9,0,0,1,3.29,7v298.8C421.57,446.47,408.45,458,392.34,458ZM119.66,72c-6.62,0-11.23,4-11.23,7.61v352.7c0,3.6,4.61,7.61,11.23,7.61H392.34c6.62,0,11.23-4,11.23-7.61V137.81L323.49,72Z"/><path class="cls-2" d="M412.57,135.71h-64c-12.1,0-21.82-8.22-21.82-18.47V63Z"/><path class="cls-8" d="M412.57,144.71h-64c-17,0-30.82-12.32-30.82-27.47V63a9,9,0,0,1,14.81-6.87l85.85,72.67a9,9,0,0,1-5.81,15.87ZM335.72,82.45v34.79c0,5.22,5.75,9.47,12.82,9.47H388Z"/></svg>