<svg id="Layer_1" data-name="Layer 1" xmlns="http://www.w3.org/2000/svg" viewBox="0 0 512 512"><title>icon collection2_flat</title><path d="M256,488.74A232.74,232.74,0,0,1,91.43,91.43,232.74,232.74,0,1,1,420.57,420.57,231.21,231.21,0,0,1,256,488.74Zm0-445.48C138.7,43.26,43.26,138.7,43.26,256S138.7,468.74,256,468.74,468.74,373.31,468.74,256,373.3,43.26,256,43.26Z"/><path d="M112.26,247.26l.1.2.3-.2Z"/><path d="M215.75,81.44A115.2,115.2,0,0,0,100.57,195.17c7.81-.93,15.68-.79,23.58-.66a91.63,91.63,0,0,1,183.24,2.14V278a10.29,10.29,0,0,1-10.31,10.31H215.75a91.16,91.16,0,0,1-56.48-19.49l-15.63,17.67a114.61,114.61,0,0,0,72.11,25.39H318a12.93,12.93,0,0,0,13-13V196.65A115.2,115.2,0,0,0,215.75,81.44Z"/><path d="M324.93,319.79l-12.54,1.88a6.52,6.52,0,0,0,.84,1.05l71.27,83.8c3.4,3.4,7.82,4.5,12.43-.1l27.6-27.6c4.6-4.6,3.5-9,.1-12.43l-83.8-71.27a6.52,6.52,0,0,0-1.05-.84l-1.88,12.54A16.31,16.31,0,0,1,324.93,319.79Z"/><polygon points="119.84 166.96 163.11 168.62 140.03 205.26 116.95 241.9 96.76 203.59 76.57 165.29 119.84 166.96"/></svg>