<svg id="Layer_1" data-name="Layer 1" xmlns="http://www.w3.org/2000/svg" viewBox="0 0 512 512"><defs><style>.cls-1{fill:none;stroke:#000;stroke-miterlimit:10;stroke-width:20px;}</style></defs><title>icon_collection</title><path class="cls-1" d="M256,33.26C133,33.26,33.26,133,33.26,256S133,478.74,256,478.74,478.74,379,478.74,256,379,33.26,256,33.26Z"/><path d="M339.33,143.5H268.52v25H314.3a29.17,29.17,0,0,1,29.17,29.17V314.3a29.17,29.17,0,0,1-29.17,29.17H197.7a29.17,29.17,0,0,1-29.17-29.17V143.8a29.17,29.17,0,0,0-25,28.87V339.33a29.17,29.17,0,0,0,29.17,29.17H339.33a29.17,29.17,0,0,0,29.17-29.17V172.67A29.17,29.17,0,0,0,339.33,143.5Z"/><path d="M243.48,172.37V240h25V168.54H243.74A29.41,29.41,0,0,0,243.48,172.37Z"/><path d="M243.74,168.54h24.78v-25A29.18,29.18,0,0,0,243.74,168.54Z"/><path d="M256.13,240H286a5.3,5.3,0,0,1,3.9,8.9l-12.8,13.88L260,281.33a5.3,5.3,0,0,1-7.8,0l-17.1-18.55-12.8-13.88a5.3,5.3,0,0,1,3.9-8.9Z"/><rect x="196.54" y="143.5" width="12.83" height="25.04" rx="2.61" ry="2.61"/><path d="M168.54,200.48V197.7a29.17,29.17,0,0,1,29.17-29.17h5v-25h-30a29.17,29.17,0,0,0-29.17,29.17v27.81Z"/></svg>