<svg id="Layer_1" data-name="Layer 1" xmlns="http://www.w3.org/2000/svg" viewBox="0 0 512 512"><defs><style>.cls-1{fill:#e6e7e8;}.cls-2,.cls-7{fill:#7d9ed2;}.cls-3{font-size:111.49px;fill:#fff;font-family:NexaBold, Nexa Bold;}.cls-4{letter-spacing:0.04em;}.cls-5,.cls-6{fill:none;}.cls-5{stroke:#6d6e70;stroke-miterlimit:10;stroke-width:8px;}.cls-5,.cls-6,.cls-7{stroke-linecap:round;}.cls-6,.cls-7{stroke:#231f20;stroke-linejoin:round;stroke-width:18px;}</style></defs><title>icon collection2</title><path class="cls-1" d="M412.57,133.55v298.8c0,9.16-9.08,16.61-20.23,16.61H119.66c-11.15,0-20.23-7.46-20.23-16.61V79.65c0-9.16,9.08-16.61,20.23-16.61H326.72Z"/><rect class="cls-2" x="99.43" y="312.6" width="313.13" height="136.36" rx="0.82" ry="0.82"/><text class="cls-3" transform="translate(162.86 411) scale(0.79 1)"><tspan class="cls-4">C</tspan><tspan x="78.26" y="0">SV</tspan></text><line class="cls-5" x1="148.48" y1="122.25" x2="185.31" y2="122.25"/><line class="cls-5" x1="207.88" y1="122.25" x2="244.71" y2="122.25"/><line class="cls-5" x1="267.29" y1="122.75" x2="304.12" y2="122.75"/><line class="cls-5" x1="148.48" y1="143.65" x2="185.31" y2="143.65"/><line class="cls-5" x1="207.88" y1="143.65" x2="244.71" y2="143.65"/><line class="cls-5" x1="267.29" y1="144.15" x2="304.12" y2="144.15"/><line class="cls-5" x1="148.48" y1="165.06" x2="185.31" y2="165.06"/><line class="cls-5" x1="207.88" y1="165.06" x2="244.71" y2="165.06"/><line class="cls-5" x1="267.29" y1="165.55" x2="304.12" y2="165.55"/><line class="cls-5" x1="326.69" y1="165.55" x2="363.52" y2="165.55"/><line class="cls-5" x1="148.48" y1="186.46" x2="185.31" y2="186.46"/><line class="cls-5" x1="207.88" y1="186.46" x2="244.71" y2="186.46"/><line class="cls-5" x1="267.29" y1="186.96" x2="304.12" y2="186.96"/><line class="cls-5" x1="326.69" y1="186.96" x2="363.52" y2="186.96"/><line class="cls-5" x1="148.48" y1="207.86" x2="185.31" y2="207.86"/><line class="cls-5" x1="207.88" y1="207.86" x2="244.71" y2="207.86"/><line class="cls-5" x1="267.29" y1="208.36" x2="304.12" y2="208.36"/><line class="cls-5" x1="326.69" y1="208.36" x2="363.52" y2="208.36"/><line class="cls-5" x1="148.48" y1="229.26" x2="185.31" y2="229.26"/><line class="cls-5" x1="207.88" y1="229.26" x2="244.71" y2="229.26"/><line class="cls-5" x1="267.29" y1="229.76" x2="304.12" y2="229.76"/><line class="cls-5" x1="326.69" y1="229.76" x2="363.52" y2="229.76"/><line class="cls-5" x1="148.48" y1="250.67" x2="185.31" y2="250.67"/><line class="cls-5" x1="207.88" y1="250.67" x2="244.71" y2="250.67"/><line class="cls-5" x1="267.29" y1="251.16" x2="304.12" y2="251.16"/><line class="cls-5" x1="326.69" y1="251.16" x2="363.52" y2="251.16"/><line class="cls-5" x1="148.48" y1="272.07" x2="185.31" y2="272.07"/><line class="cls-5" x1="207.88" y1="272.07" x2="244.71" y2="272.07"/><line class="cls-5" x1="267.29" y1="272.57" x2="304.12" y2="272.57"/><line class="cls-5" x1="326.69" y1="272.57" x2="363.52" y2="272.57"/><line class="cls-5" x1="148.48" y1="293.47" x2="185.31" y2="293.47"/><line class="cls-5" x1="207.88" y1="293.47" x2="244.71" y2="293.47"/><line class="cls-5" x1="267.29" y1="293.97" x2="304.12" y2="293.97"/><line class="cls-5" x1="326.69" y1="293.97" x2="363.52" y2="293.97"/><path class="cls-6" d="M412.57,133.55v298.8c0,9.16-9.08,16.61-20.23,16.61H119.66c-11.15,0-20.23-7.46-20.23-16.61V79.65c0-9.16,9.08-16.61,20.23-16.61H326.72Z"/><path class="cls-7" d="M412.57,135.71h-64c-12.1,0-21.82-8.22-21.82-18.47V63Z"/></svg>