<svg id="Layer_1" data-name="Layer 1" xmlns="http://www.w3.org/2000/svg" viewBox="0 0 512 512"><defs><style>.cls-1,.cls-2{fill:none;}.cls-1{stroke:#000;stroke-miterlimit:10;stroke-width:20px;}.cls-3{fill:#fff;}</style></defs><title>icon_collection</title><circle class="cls-1" cx="256" cy="256" r="222.74"/><path d="M215.75,81.44a115.2,115.2,0,0,0,0,230.41H318a12.93,12.93,0,0,0,13-13V196.65A115.21,115.21,0,0,0,215.75,81.44ZM307.39,278a10.29,10.29,0,0,1-10.32,10.31H215.75a91.64,91.64,0,1,1,91.64-91.63Z"/><path class="cls-2" d="M215.75,105a91.64,91.64,0,0,0,0,183.27h81.32A10.29,10.29,0,0,0,307.39,278V196.65A91.64,91.64,0,0,0,215.75,105Zm-58.22,64.83a5.09,5.09,0,0,1,5.09-5.09h23.31V141.44a5.09,5.09,0,1,1,10.18,0v23.27h23.27a5.09,5.09,0,1,1,0,10.18H196.11v23.31a5.09,5.09,0,1,1-10.18,0V174.93H162.62A5.08,5.08,0,0,1,157.53,169.84ZM186.3,253.3c-4.22,4.21-9.22,6-11.22,4s-.19-7,4-11.21L236,189.24l.57-.56L264,161.2c4.22-4.22,9.22-6,11.22-4s.19,7-4,11.21l-27.48,27.48-.56.57Zm101.08-7.49H230.62a5.09,5.09,0,1,1,0-10.18h56.76a5.09,5.09,0,0,1,0,10.18Z"/><rect class="cls-3" x="185.93" y="164.75" width="10.18" height="10.18"/><path d="M196.11,174.93v23.31a5.09,5.09,0,1,1-10.18,0V174.93Z"/><path d="M196.11,141.48v23.27H185.93V141.44a5.09,5.09,0,1,1,10.18,0Z"/><path d="M185.93,164.75v10.18H162.62a5.09,5.09,0,1,1,0-10.18Z"/><path d="M224.47,169.84a5.08,5.08,0,0,1-5.09,5.09H196.11V164.75h23.27A5.09,5.09,0,0,1,224.47,169.84Z"/><path d="M253.93,235.63v10.18H230.62a5.09,5.09,0,1,1,0-10.18Z"/><path d="M292.47,240.72a5.09,5.09,0,0,1-5.09,5.09H264.11V235.63h23.27A5.08,5.08,0,0,1,292.47,240.72Z"/><path d="M273.72,240.72a5.09,5.09,0,0,1-5.09,5.09H245.36V235.63h23.27A5.08,5.08,0,0,1,273.72,240.72Z"/><path d="M221.16,218.43l-12.82,12.83-22,22c-4.22,4.21-9.22,6-11.22,4s-.19-7,4-11.21L214,211.24Z"/><path d="M271.2,168.39l-27.48,27.48-.56.57-6.77,6.77-7.2-7.2,6.77-6.77.57-.56L264,161.2c4.22-4.22,9.22-6,11.22-4S275.41,164.18,271.2,168.39Z"/><path d="M243.72,195.87l-.56.57-34.82,34.82-7.2-7.2L236,189.24l.57-.56c4.09-3.8,8.74-5.35,10.64-3.45S247.52,191.78,243.72,195.87Z"/><path d="M324.93,319.79l-12.54,1.88a6.52,6.52,0,0,0,.84,1.05l71.27,83.8c3.4,3.4,7.82,4.5,12.43-.1l27.6-27.6c4.6-4.6,3.5-9,.1-12.43l-83.8-71.27a6.52,6.52,0,0,0-1.05-.84l-1.88,12.54A16.31,16.31,0,0,1,324.93,319.79Z"/><path d="M402.74,162.22H380.26c-1.53,0-2.56-.81-1.9-1.58L390,146.05l11-13.73c.73-.91,3.14-.91,3.94,0l11,13.73,11.61,14.59c.58.72-.44,1.58-1.9,1.58Z"/><path d="M402.74,273.08h22.49c1.53,0,2.56.81,1.9,1.58l-11.61,14.59-11,13.73c-.73.91-3.14.91-3.94,0l-11-13.73L378.21,274.7c-.58-.72.44-1.58,1.9-1.58h22.63Z"/><rect x="390.68" y="214.18" width="24.28" height="6.93" transform="translate(805.63 435.3) rotate(180)"/><rect x="390.68" y="254.21" width="24.28" height="6.93" transform="translate(805.63 515.34) rotate(180)"/><rect x="390.68" y="194.17" width="24.28" height="6.93" transform="translate(805.63 395.27) rotate(180)"/><rect x="390.68" y="234.19" width="24.28" height="6.93" transform="translate(805.63 475.32) rotate(180)"/><rect x="390.68" y="174.16" width="24.28" height="6.93" transform="translate(805.63 355.25) rotate(180)"/><path d="M271.18,384.64V362.15c0-1.53.81-2.56,1.58-1.9l14.59,11.61,13.73,11c.91.73.91,3.14,0,3.94l-13.73,11-14.59,11.61c-.72.58-1.58-.44-1.58-1.9Z"/><path d="M160.32,384.64v22.49c0,1.53-.81,2.56-1.58,1.9l-14.59-11.61-13.73-11c-.91-.73-.91-3.14,0-3.94l13.73-11,14.54-11.46c.72-.58,1.58.44,1.58,1.9v22.63Z"/><rect x="203.6" y="381.28" width="24.28" height="6.93" transform="translate(600.49 169.01) rotate(90)"/><rect x="243.62" y="381.28" width="24.28" height="6.93" transform="translate(640.51 128.98) rotate(90)"/><rect x="183.59" y="381.28" width="24.28" height="6.93" transform="translate(580.47 189.02) rotate(90)"/><rect x="223.61" y="381.28" width="24.28" height="6.93" transform="translate(620.5 149) rotate(90)"/><rect x="163.58" y="381.28" width="24.28" height="6.93" transform="translate(560.46 209.03) rotate(90)"/></svg>