<?xml version="1.0" encoding="UTF-8" standalone="no"?>
<!-- Created with Inkscape (http://www.inkscape.org/) -->

<svg
   xmlns:dc="http://purl.org/dc/elements/1.1/"
   xmlns:cc="http://creativecommons.org/ns#"
   xmlns:rdf="http://www.w3.org/1999/02/22-rdf-syntax-ns#"
   xmlns:svg="http://www.w3.org/2000/svg"
   xmlns="http://www.w3.org/2000/svg"
   xmlns:sodipodi="http://sodipodi.sourceforge.net/DTD/sodipodi-0.dtd"
   xmlns:inkscape="http://www.inkscape.org/namespaces/inkscape"
   id="svg2"
   version="1.1"
   inkscape:version="0.91 r13725"
   xml:space="preserve"
   width="640"
   height="640"
   viewBox="0 0 640 640"
   sodipodi:docname="icon_labels.svg"><metadata
     id="metadata8"><rdf:RDF><cc:Work
         rdf:about=""><dc:format>image/svg+xml</dc:format><dc:type
           rdf:resource="http://purl.org/dc/dcmitype/StillImage" /><dc:title></dc:title></cc:Work></rdf:RDF></metadata><defs
     id="defs6"><clipPath
       clipPathUnits="userSpaceOnUse"
       id="clipPath16"><path
         d="M 0,512 512,512 512,0 0,0 0,512 Z"
         id="path18"
         inkscape:connector-curvature="0" /></clipPath></defs><sodipodi:namedview
     pagecolor="#ffffff"
     bordercolor="#666666"
     borderopacity="1"
     objecttolerance="10"
     gridtolerance="10"
     guidetolerance="10"
     inkscape:pageopacity="0"
     inkscape:pageshadow="2"
     inkscape:window-width="688"
     inkscape:window-height="480"
     id="namedview4"
     showgrid="false"
     inkscape:zoom="0.36875"
     inkscape:cx="320"
     inkscape:cy="320"
     inkscape:window-x="0"
     inkscape:window-y="0"
     inkscape:window-maximized="0"
     inkscape:current-layer="g10" /><g
     id="g10"
     inkscape:groupmode="layer"
     inkscape:label="icon_labels"
     transform="matrix(1.25,0,0,-1.25,0,640)"><g
       id="g12"><g
         id="g14"
         clip-path="url(#clipPath16)"><g
           id="g20"
           transform="translate(478.7389,256)"><path
             d="m 0,0 c 0,-123.015 -99.724,-222.739 -222.739,-222.739 -123.015,0 -222.739,99.724 -222.739,222.739 0,123.015 99.724,222.739 222.739,222.739 C -99.724,222.739 0,123.015 0,0 Z"
             style="fill:none;stroke:#000000;stroke-width:20;stroke-linecap:butt;stroke-linejoin:miter;stroke-miterlimit:10;stroke-dasharray:none;stroke-opacity:1"
             id="path22"
             inkscape:connector-curvature="0" /></g><g
           id="g24"
           transform="translate(211.0089,225.9828)"><path
             d="M 0,0 C 31.783,13.101 38.582,-2.787 38.584,-2.791 38.577,-2.776 41.42,0.575 41.663,0.98 43.711,4.39 43.38,8.609 43.2,12.434 42.994,16.826 43.044,23.658 40.045,27.181 37.525,30.142 29.405,40.888 22.3,52.177 3.515,53.059 -13.884,49.393 -29.022,40.498 -39.63,34.261 -48.506,25.77 -55.781,15.482 c 1.337,-4.899 2.515,-9.84 3.839,-14.742 1.788,-6.619 2.937,-12.902 8.181,-17.835 2.349,-2.21 4.954,-4.129 7.282,-6.361 2.085,-1.998 4.258,-4.161 6.996,-5.243 2.474,-0.978 5.225,-1.632 7.894,-1.742 0,0 -10.204,17.338 21.589,30.441"
             style="fill:#8c8c8c;fill-opacity:1;fill-rule:nonzero;stroke:none"
             id="path26"
             inkscape:connector-curvature="0" /></g><g
           id="g28"
           transform="translate(297.6281,72.9596)"><path
             d="m 0,0 c 2.044,2.006 0.923,6.127 0.607,8.635 -0.427,3.4 -1.03,6.779 -1.3,10.197 -0.712,9.018 1.5,19.667 -3.097,27.943 -2.553,4.596 -5.841,8.741 -8.491,13.284 -2.845,4.878 -5.489,9.872 -8,14.93 -5.073,10.221 -9.612,20.706 -13.836,31.304 -3.519,8.832 -6.814,17.753 -9.912,26.74 -1.646,4.773 -3.248,9.563 -4.744,14.385 -0.07,0.227 -0.11,0.55 -0.233,0.756 -4.006,6.671 -19.9,9.499 -39.554,0.731 -20.385,-9.102 -18.93,-21.595 -18.93,-21.595 l 44.047,-95.704 c 1.216,-3.275 6.798,-4.85 6.798,-4.85 32.397,-9.342 41.372,-21.571 44.893,-26.667 3.521,-5.096 6.067,-3.156 6.067,-3.156 0,0 -21.095,60.403 -21.106,60.434 -0.171,0.487 -2.015,0.935 -2.455,1.142 -1.142,0.537 -1.991,1.305 -2.825,2.264 -1.776,2.041 -3.11,4.47 -3.976,7.029 -0.446,1.316 -0.94,2.696 -1.025,4.093 -0.074,1.227 0.224,2.53 1.07,3.423 1.198,1.266 3.2,1.416 4.885,0.966 3.614,-0.966 6.276,-3.949 7.619,-7.345 0.68,-1.72 1.051,-3.573 1.06,-5.424 0.005,-0.885 -0.039,-1.825 -0.256,-2.687 -0.138,-0.551 -1.162,-1.908 -1.001,-2.376 L -4.093,1.324 c -0.06,0.006 0.39,-1.25 0.965,-3.377 -0.134,0.498 1.937,1.22 2.271,1.413 0.324,0.186 0.61,0.398 0.857,0.64"
             style="fill:#8c8c8c;fill-opacity:1;fill-rule:nonzero;stroke:none"
             id="path30"
             inkscape:connector-curvature="0" /></g><g
           id="g32"
           transform="translate(216.0526,315.308)"><path
             d="M 0,0 C -0.016,0.026 -0.031,0.051 -0.047,0.077 -0.039,0.051 -0.031,0.026 -0.023,0.001 -0.015,0 -0.008,0 0,0"
             style="fill:#231f20;fill-opacity:1;fill-rule:nonzero;stroke:none"
             id="path34"
             inkscape:connector-curvature="0" /></g><g
           id="g36"
           transform="translate(137.9715,278.6133)"><path
             d="M 0,0 C 0.006,0.008 0.012,0.016 0.018,0.024 0.001,0.055 -0.016,0.086 -0.032,0.116 -0.021,0.077 -0.011,0.04 0,0"
             style="fill:#231f20;fill-opacity:1;fill-rule:nonzero;stroke:none"
             id="path38"
             inkscape:connector-curvature="0" /></g><g
           id="g40"
           transform="translate(212.0051,322.3845)"><path
             d="m 0,0 c -5.812,18.113 -15.874,50.349 -24.314,74.017 -25.849,0.222 -52.33,0.827 -74.165,-15.242 -8.92,-6.564 -16.208,-14.745 -22.292,-23.828 -0.018,-0.107 -0.042,-0.209 -0.06,-0.316 6.416,-11.334 15.412,-26.686 24.191,-39.96 6.881,-10.404 13.371,-21.708 18.574,-31.326 0.017,-0.031 0.034,-0.062 0.05,-0.092 7.273,10.27 16.143,18.759 26.742,24.991 15.131,8.891 32.523,12.557 51.298,11.68 C 0.016,-0.051 0.008,-0.025 0,0"
             style="fill:#8c8c8c;fill-opacity:1;fill-rule:nonzero;stroke:none"
             id="path42"
             inkscape:connector-curvature="0" /></g><g
           id="g44"
           transform="translate(219.4625,304.8398)"><path
             d="m 0,0 c -0.824,2.392 -1.999,6 -3.433,10.469 -4.014,0.187 -7.96,0.154 -11.838,-0.08 l 11.149,-31.056 -10.554,12.776 -0.597,18.279 c -2.405,-0.145 -4.781,-0.373 -7.128,-0.685 l 11.235,-31.256 -10.625,12.91 -0.612,18.346 C -33.98,8.166 -44.841,4.601 -54.731,-1.211 c -10.6,-6.232 -19.47,-14.721 -26.742,-24.991 6.056,-11.2 10.357,-20.097 11.468,-22.575 0.592,-1.329 1.524,-4.466 2.57,-8.303 7.276,10.281 16.152,18.779 26.76,25.016 15.137,8.895 32.536,12.56 51.321,11.679 C 6.111,-13.185 1.984,-5.77 0,0"
             style="fill:#8c8c8c;fill-opacity:1;fill-rule:nonzero;stroke:none"
             id="path46"
             inkscape:connector-curvature="0" /></g><g
           id="g48"
           transform="translate(197.0569,314.5561)"><path
             d="m 0,0 0.003,-0.013 c 0,0 0.001,0 0.001,0 L 0,0 Z"
             style="fill:#231f20;fill-opacity:1;fill-rule:nonzero;stroke:none"
             id="path50"
             inkscape:connector-curvature="0" /></g><g
           id="g52"
           transform="translate(204.1862,315.2417)"><path
             d="m 0,0 0.003,-0.013 c 0,0 0.001,0 0.002,0 L 0,0 Z"
             style="fill:#231f20;fill-opacity:1;fill-rule:nonzero;stroke:none"
             id="path54"
             inkscape:connector-curvature="0" /></g><g
           id="g56"
           transform="translate(345.9839,378.7213)"><path
             d="m 0,0 c -10.234,5.56 -21.245,8.341 -33.033,8.341 -18.574,0 -35.313,-7.757 -50.215,-23.273 -14.904,-15.514 -26.666,-36.063 -35.283,-61.642 -8.621,-25.582 -12.93,-47.771 -12.93,-66.565 0,-12.569 2.419,-22.772 7.257,-30.613 4.839,-7.841 11.036,-11.761 18.601,-11.761 13.123,0 28.195,11.954 45.21,35.868 C -53.386,-86.918 -33.257,-37.036 0,0 m 48.547,-179.841 c -25.582,-27.25 -49.048,-40.873 -70.402,-40.873 -11.79,0 -21.132,4.171 -28.028,12.513 -6.896,8.341 -10.734,20.24 -11.51,35.701 -13.459,-16.35 -25.386,-28.474 -35.785,-36.369 -10.4,-7.896 -21.494,-11.845 -33.282,-11.845 -15.126,0 -27.276,6.532 -36.452,19.603 -9.176,13.067 -13.764,30.501 -13.764,52.3 0,26.025 6.006,52.856 18.018,80.495 12.012,27.635 29.804,49.464 53.385,65.479 23.578,16.016 52.16,24.024 85.75,24.024 25.133,0 47.879,-3.394 68.232,-10.176 L 44.709,0 C 28.137,-19.353 14.264,-46.436 3.086,-81.245 c -11.178,-34.813 -16.767,-61.338 -16.767,-79.577 0,-8.9 1.807,-15.794 5.422,-20.687 3.613,-4.895 8.647,-7.341 15.099,-7.341 11.565,0 25.467,9.398 41.707,28.195 l 0,-19.186 z"
             style="fill:#000000;fill-opacity:1;fill-rule:nonzero;stroke:none"
             id="path58"
             inkscape:connector-curvature="0" /></g></g></g></g></svg>