<?xml version="1.0" encoding="UTF-8" standalone="no"?>
<!-- Created with Inkscape (http://www.inkscape.org/) -->

<svg
   xmlns:dc="http://purl.org/dc/elements/1.1/"
   xmlns:cc="http://creativecommons.org/ns#"
   xmlns:rdf="http://www.w3.org/1999/02/22-rdf-syntax-ns#"
   xmlns:svg="http://www.w3.org/2000/svg"
   xmlns="http://www.w3.org/2000/svg"
   xmlns:sodipodi="http://sodipodi.sourceforge.net/DTD/sodipodi-0.dtd"
   xmlns:inkscape="http://www.inkscape.org/namespaces/inkscape"
   id="svg2"
   version="1.1"
   inkscape:version="0.91 r13725"
   xml:space="preserve"
   width="640"
   height="640"
   viewBox="0 0 640 640"
   sodipodi:docname="icon_zoom.svg"><metadata
     id="metadata8"><rdf:RDF><cc:Work
         rdf:about=""><dc:format>image/svg+xml</dc:format><dc:type
           rdf:resource="http://purl.org/dc/dcmitype/StillImage" /><dc:title></dc:title></cc:Work></rdf:RDF></metadata><defs
     id="defs6"><clipPath
       clipPathUnits="userSpaceOnUse"
       id="clipPath16"><path
         d="M 0,512 512,512 512,0 0,0 0,512 Z"
         id="path18"
         inkscape:connector-curvature="0" /></clipPath></defs><sodipodi:namedview
     pagecolor="#ffffff"
     bordercolor="#666666"
     borderopacity="1"
     objecttolerance="10"
     gridtolerance="10"
     guidetolerance="10"
     inkscape:pageopacity="0"
     inkscape:pageshadow="2"
     inkscape:window-width="688"
     inkscape:window-height="480"
     id="namedview4"
     showgrid="false"
     inkscape:zoom="0.36875"
     inkscape:cx="320"
     inkscape:cy="320"
     inkscape:window-x="0"
     inkscape:window-y="0"
     inkscape:window-maximized="0"
     inkscape:current-layer="g10" /><g
     id="g10"
     inkscape:groupmode="layer"
     inkscape:label="icon_zoom"
     transform="matrix(1.25,0,0,-1.25,0,640)"><g
       id="g12"><g
         id="g14"
         clip-path="url(#clipPath16)"><g
           id="g20"
           transform="translate(478.7389,256)"><path
             d="m 0,0 c 0,-123.015 -99.724,-222.739 -222.739,-222.739 -123.015,0 -222.739,99.724 -222.739,222.739 0,123.015 99.724,222.739 222.739,222.739 C -99.724,222.739 0,123.015 0,0 Z"
             style="fill:none;stroke:#000000;stroke-width:20;stroke-linecap:butt;stroke-linejoin:miter;stroke-miterlimit:10;stroke-dasharray:none;stroke-opacity:1"
             id="path22"
             inkscape:connector-curvature="0" /></g><g
           id="g24"
           transform="translate(307.3883,234.0289)"><path
             d="m 0,0 c 0,-5.71 -4.6,-10.31 -10.32,-10.31 l -81.32,0 c -50.6,0 -91.63,41.03 -91.63,91.63 0,50.61 41.03,91.64 91.63,91.64 C -41.03,172.96 0,131.93 0,81.32 L 0,0 Z m -91.64,196.53 c -63.62,0 -115.2,-51.58 -115.2,-115.21 0,-63.62 51.58,-115.2 115.2,-115.2 l 102.24,0 c 7.19,0 12.97,5.78 12.97,12.96 l 0,102.24 c 0,63.63 -51.58,115.21 -115.21,115.21"
             style="fill:#000000;fill-opacity:1;fill-rule:nonzero;stroke:none"
             id="path26"
             inkscape:connector-curvature="0" /></g><g
           id="g28"
           transform="translate(287.3783,266.1888)"><path
             d="m 0,0 -56.76,0 c -2.82,0 -5.09,2.28 -5.09,5.09 0,2.82 2.27,5.09 5.09,5.09 L 0,10.18 C 2.82,10.18 5.09,7.91 5.09,5.09 5.09,2.28 2.82,0 0,0 m -101.08,-7.49 c -4.22,-4.21 -9.22,-6.01 -11.22,-4.01 -1.99,1.99 -0.19,7 4.02,11.21 l 56.86,56.86 c 0.19,0.19 0.38,0.38 0.57,0.56 l 27.47,27.48 c 4.22,4.22 9.22,6.01 11.22,4.02 1.99,-1.99 0.19,-7 -4.02,-11.21 L -43.66,49.94 c -0.18,-0.19 -0.37,-0.38 -0.56,-0.57 l -56.86,-56.86 z m -28.77,83.46 c 0,2.81 2.27,5.09 5.09,5.09 l 23.31,0 0,23.31 c 0,2.81 2.27,5.09 5.09,5.09 2.81,0 5.09,-2.31 5.09,-5.13 l 0,-23.27 23.27,0 c 2.82,0 5.09,-2.28 5.09,-5.09 0,-2.82 -2.27,-5.09 -5.09,-5.09 l -23.27,0 0,-23.31 c 0,-2.82 -2.28,-5.09 -5.09,-5.09 -2.82,0 -5.09,2.27 -5.09,5.09 l 0,23.31 -23.31,0 c -2.82,0 -5.09,2.27 -5.09,5.09 m 58.22,64.83 c -50.6,0 -91.63,-41.03 -91.63,-91.64 0,-50.6 41.03,-91.63 91.63,-91.63 l 81.32,0 c 5.72,0 10.32,4.6 10.32,10.31 l 0,81.32 c 0,50.61 -41.03,91.64 -91.64,91.64"
             style="fill:#ffffff;fill-opacity:1;fill-rule:nonzero;stroke:none"
             id="path30"
             inkscape:connector-curvature="0" /></g><path
           d="m 196.108,337.069 -10.18,0 0,10.18 10.18,0 0,-10.18 z"
           style="fill:#ffffff;fill-opacity:1;fill-rule:nonzero;stroke:none"
           id="path32"
           inkscape:connector-curvature="0" /><g
           id="g34"
           transform="translate(196.1083,337.0689)"><path
             d="m 0,0 0,-23.31 c 0,-2.82 -2.28,-5.09 -5.09,-5.09 -2.82,0 -5.09,2.27 -5.09,5.09 L -10.18,0 0,0 Z"
             style="fill:#000000;fill-opacity:1;fill-rule:nonzero;stroke:none"
             id="path36"
             inkscape:connector-curvature="0" /></g><g
           id="g38"
           transform="translate(196.1083,370.5189)"><path
             d="m 0,0 0,-23.27 -10.18,0 0,23.31 c 0,2.81 2.27,5.09 5.09,5.09 C -2.28,5.13 0,2.82 0,0"
             style="fill:#000000;fill-opacity:1;fill-rule:nonzero;stroke:none"
             id="path40"
             inkscape:connector-curvature="0" /></g><g
           id="g42"
           transform="translate(185.9283,347.2489)"><path
             d="m 0,0 0,-10.18 -23.31,0 c -2.82,0 -5.09,2.27 -5.09,5.09 0,2.81 2.27,5.09 5.09,5.09 L 0,0 Z"
             style="fill:#000000;fill-opacity:1;fill-rule:nonzero;stroke:none"
             id="path44"
             inkscape:connector-curvature="0" /></g><g
           id="g46"
           transform="translate(224.4683,342.1588)"><path
             d="m 0,0 c 0,-2.82 -2.27,-5.09 -5.09,-5.09 l -23.27,0 0,10.18 23.27,0 C -2.27,5.09 0,2.81 0,0"
             style="fill:#000000;fill-opacity:1;fill-rule:nonzero;stroke:none"
             id="path48"
             inkscape:connector-curvature="0" /></g><g
           id="g50"
           transform="translate(253.9283,276.3687)"><path
             d="m 0,0 0,-10.18 -23.31,0 c -2.82,0 -5.09,2.28 -5.09,5.09 0,2.82 2.27,5.09 5.09,5.09 L 0,0 Z"
             style="fill:#000000;fill-opacity:1;fill-rule:nonzero;stroke:none"
             id="path52"
             inkscape:connector-curvature="0" /></g><g
           id="g54"
           transform="translate(292.4682,271.2789)"><path
             d="m 0,0 c 0,-2.81 -2.27,-5.09 -5.09,-5.09 l -23.27,0 0,10.18 23.27,0 C -2.27,5.09 0,2.82 0,0"
             style="fill:#000000;fill-opacity:1;fill-rule:nonzero;stroke:none"
             id="path56"
             inkscape:connector-curvature="0" /></g><g
           id="g58"
           transform="translate(273.7182,271.2789)"><path
             d="m 0,0 c 0,-2.81 -2.27,-5.09 -5.09,-5.09 l -23.27,0 0,10.18 23.27,0 C -2.27,5.09 0,2.82 0,0"
             style="fill:#000000;fill-opacity:1;fill-rule:nonzero;stroke:none"
             id="path60"
             inkscape:connector-curvature="0" /></g><g
           id="g62"
           transform="translate(221.1583,293.5689)"><path
             d="m 0,0 -12.82,-12.83 -22.04,-22.04 c -4.22,-4.21 -9.22,-6.01 -11.22,-4.01 -1.99,1.99 -0.19,7 4.02,11.21 L -7.2,7.19 0,0 Z"
             style="fill:#000000;fill-opacity:1;fill-rule:nonzero;stroke:none"
             id="path64"
             inkscape:connector-curvature="0" /></g><g
           id="g66"
           transform="translate(271.1982,343.609)"><path
             d="m 0,0 -27.48,-27.48 c -0.18,-0.19 -0.37,-0.38 -0.56,-0.57 l -6.77,-6.77 -7.2,7.2 6.77,6.77 c 0.19,0.19 0.38,0.38 0.57,0.56 L -7.2,7.19 C -2.98,11.41 2.02,13.2 4.02,11.21 6.01,9.22 4.21,4.21 0,0"
             style="fill:#000000;fill-opacity:1;fill-rule:nonzero;stroke:none"
             id="path68"
             inkscape:connector-curvature="0" /></g><g
           id="g70"
           transform="translate(243.7182,316.129)"><path
             d="m 0,0 c -0.18,-0.19 -0.37,-0.38 -0.56,-0.57 l -34.82,-34.82 -7.2,7.2 34.82,34.82 c 0.19,0.19 0.38,0.38 0.57,0.56 4.09,3.8 8.74,5.35 10.64,3.45 C 5.35,8.74 3.8,4.09 0,0"
             style="fill:#000000;fill-opacity:1;fill-rule:nonzero;stroke:none"
             id="path72"
             inkscape:connector-curvature="0" /></g><g
           id="g74"
           transform="translate(324.9292,192.212)"><path
             d="m 0,0 -12.544,-1.879 c 0.244,-0.372 0.514,-0.729 0.835,-1.05 l 71.272,-83.799 c 3.404,-3.403 7.823,-4.502 12.426,0.101 l 27.602,27.602 c 4.603,4.603 3.504,9.022 0.101,12.426 L 15.893,24.673 c -0.321,0.321 -0.678,0.591 -1.05,0.835 L 12.964,12.964 C 12.028,6.711 6.253,0.936 0,0"
             style="fill:#000000;fill-opacity:1;fill-rule:nonzero;stroke:none"
             id="path76"
             inkscape:connector-curvature="0" /></g><g
           id="g78"
           transform="translate(402.7416,349.7806)"><path
             d="m 0,0 -22.485,0 c -1.534,0 -2.556,0.813 -1.899,1.578 l 11.608,14.587 10.951,13.725 c 0.73,0.909 3.139,0.909 3.942,0 L 13.068,16.165 24.676,1.578 C 25.26,0.861 24.238,0 22.778,0 L 0,0 Z"
             style="fill:#000000;fill-opacity:1;fill-rule:nonzero;stroke:none"
             id="path80"
             inkscape:connector-curvature="0" /></g><g
           id="g82"
           transform="translate(402.7416,238.9239)"><path
             d="m 0,0 22.486,0 c 1.533,0 2.555,-0.813 1.898,-1.578 L 12.776,-16.165 1.825,-29.89 c -0.73,-0.909 -3.139,-0.909 -3.942,0 l -10.951,13.725 -11.462,14.539 c -0.584,0.717 0.438,1.578 1.898,1.578 L 0,-0.048 0,0 Z"
             style="fill:#000000;fill-opacity:1;fill-rule:nonzero;stroke:none"
             id="path84"
             inkscape:connector-curvature="0" /></g><path
           d="m 390.676,297.816 24.278,0 0,-6.928 -24.278,0 0,6.928 z"
           style="fill:#000000;fill-opacity:1;fill-rule:nonzero;stroke:none"
           id="path86"
           inkscape:connector-curvature="0" /><path
           d="m 390.676,257.794 24.278,0 0,-6.928 -24.278,0 0,6.928 z"
           style="fill:#000000;fill-opacity:1;fill-rule:nonzero;stroke:none"
           id="path88"
           inkscape:connector-curvature="0" /><path
           d="m 390.676,317.827 24.278,0 0,-6.928 -24.278,0 0,6.928 z"
           style="fill:#000000;fill-opacity:1;fill-rule:nonzero;stroke:none"
           id="path90"
           inkscape:connector-curvature="0" /><path
           d="m 390.676,277.805 24.278,0 0,-6.928 -24.278,0 0,6.928 z"
           style="fill:#000000;fill-opacity:1;fill-rule:nonzero;stroke:none"
           id="path92"
           inkscape:connector-curvature="0" /><path
           d="m 390.676,337.839 24.278,0 0,-6.928 -24.278,0 0,6.928 z"
           style="fill:#000000;fill-opacity:1;fill-rule:nonzero;stroke:none"
           id="path94"
           inkscape:connector-curvature="0" /><g
           id="g96"
           transform="translate(271.1813,127.3635)"><path
             d="m 0,0 0,22.485 c 0,1.534 0.813,2.556 1.578,1.899 L 16.165,12.776 29.89,1.825 c 0.909,-0.73 0.909,-3.139 0,-3.942 L 16.165,-13.068 1.578,-24.676 C 0.861,-25.26 0,-24.238 0,-22.778 L 0,0 Z"
             style="fill:#000000;fill-opacity:1;fill-rule:nonzero;stroke:none"
             id="path98"
             inkscape:connector-curvature="0" /></g><g
           id="g100"
           transform="translate(160.3246,127.3635)"><path
             d="m 0,0 0,-22.486 c 0,-1.533 -0.813,-2.555 -1.578,-1.898 l -14.587,11.608 -13.725,10.951 c -0.909,0.73 -0.909,3.139 0,3.942 l 13.725,10.951 14.539,11.462 c 0.717,0.584 1.578,-0.438 1.578,-1.898 L -0.048,0 0,0 Z"
             style="fill:#000000;fill-opacity:1;fill-rule:nonzero;stroke:none"
             id="path102"
             inkscape:connector-curvature="0" /></g><path
           d="m 212.275,139.393 6.928,0 0,-24.278 -6.928,0 0,24.278 z"
           style="fill:#000000;fill-opacity:1;fill-rule:nonzero;stroke:none"
           id="path104"
           inkscape:connector-curvature="0" /><path
           d="m 252.297,139.393 6.928,0 0,-24.278 -6.928,0 0,24.278 z"
           style="fill:#000000;fill-opacity:1;fill-rule:nonzero;stroke:none"
           id="path106"
           inkscape:connector-curvature="0" /><path
           d="m 192.264,139.393 6.928,0 0,-24.278 -6.928,0 0,24.278 z"
           style="fill:#000000;fill-opacity:1;fill-rule:nonzero;stroke:none"
           id="path108"
           inkscape:connector-curvature="0" /><path
           d="m 232.286,139.393 6.928,0 0,-24.278 -6.928,0 0,24.278 z"
           style="fill:#000000;fill-opacity:1;fill-rule:nonzero;stroke:none"
           id="path110"
           inkscape:connector-curvature="0" /><path
           d="m 172.253,139.393 6.928,0 0,-24.278 -6.928,0 0,24.278 z"
           style="fill:#000000;fill-opacity:1;fill-rule:nonzero;stroke:none"
           id="path112"
           inkscape:connector-curvature="0" /></g></g></g></svg>