<?xml version="1.0" encoding="UTF-8" standalone="no"?>
<!-- Generator: Adobe Illustrator 19.0.0, SVG Export Plug-In . SVG Version: 6.00 Build 0)  -->

<svg
   xmlns:dc="http://purl.org/dc/elements/1.1/"
   xmlns:cc="http://creativecommons.org/ns#"
   xmlns:rdf="http://www.w3.org/1999/02/22-rdf-syntax-ns#"
   xmlns:svg="http://www.w3.org/2000/svg"
   xmlns="http://www.w3.org/2000/svg"
   xmlns:sodipodi="http://sodipodi.sourceforge.net/DTD/sodipodi-0.dtd"
   xmlns:inkscape="http://www.inkscape.org/namespaces/inkscape"
   version="1.1"
   id="Layer_1"
   x="0px"
   y="0px"
   viewBox="-604.3 694.9 512 512"
   style="enable-background:new -604.3 694.9 512 512;"
   xml:space="preserve"
   inkscape:version="0.91 r13725"
   sodipodi:docname="icon05.svg"><metadata
     id="metadata101"><rdf:RDF><cc:Work
         rdf:about=""><dc:format>image/svg+xml</dc:format><dc:type
           rdf:resource="http://purl.org/dc/dcmitype/StillImage" /></cc:Work></rdf:RDF></metadata><defs
     id="defs99" /><sodipodi:namedview
     pagecolor="#ffffff"
     bordercolor="#666666"
     borderopacity="1"
     objecttolerance="10"
     gridtolerance="10"
     guidetolerance="10"
     inkscape:pageopacity="0"
     inkscape:pageshadow="2"
     inkscape:window-width="1920"
     inkscape:window-height="1017"
     id="namedview97"
     showgrid="false"
     inkscape:zoom="0.4609375"
     inkscape:cx="256"
     inkscape:cy="256"
     inkscape:window-x="-8"
     inkscape:window-y="-8"
     inkscape:window-maximized="1"
     inkscape:current-layer="Layer_1" /><style
     type="text/css"
     id="style3">
	.st0{fill:#58595B;}
	.st1{fill:#FFFFFF;}
	.st2{fill:#231F20;}
</style><circle
     class="st0"
     cx="-348.3"
     cy="950.9"
     r="222.7"
     id="circle9" /><g
     id="g11"><path
       class="st1"
       d="M-388.6,776.3c-63.6,0-115.2,51.6-115.2,115.2s51.6,115.2,115.2,115.2h102.2c7.2,0,13-5.8,13-13V891.5   C-273.4,827.9-324.9,776.3-388.6,776.3z M-296.9,915.1v46.2v11.5c0,5.7-4.6,10.3-10.3,10.3h-11.5H-365h-23.6   c-50.6,0-91.6-41-91.6-91.6c0-50.6,41-91.6,91.6-91.6s91.6,41,91.6,91.6V915.1z"
       id="path13" /><path
       class="st1"
       d="M-379.7,842.2c0-4.9-3.9-8.8-8.8-8.8c-4.9,0-8.8,3.9-8.8,8.8v40.5h17.7V842.2z"
       id="path15" /><path
       class="st1"
       d="M-397.4,940.8c0,4.9,3.9,8.8,8.8,8.8c4.9,0,8.8-4,8.8-8.9v-40.4h-17.7V940.8z"
       id="path17" /><path
       class="st1"
       d="M-437.9,882.7c-4.9,0-8.8,3.9-8.8,8.8c0,4.9,3.9,8.8,8.8,8.8h40.5v-17.7H-437.9z"
       id="path19" /><path
       class="st1"
       d="M-339.3,882.7h-40.4v17.7h40.4c4.9,0,8.8-3.9,8.8-8.8C-330.5,886.6-334.4,882.7-339.3,882.7z"
       id="path21" /></g><path
     class="st1"
     d="M-279.4,1014.6l-12.5,1.9c0.2,0.4,0.5,0.7,0.8,1.1l71.3,83.8c3.4,3.4,7.8,4.5,12.4-0.1l27.6-27.6  c4.6-4.6,3.5-9,0.1-12.4l-83.8-71.3c-0.3-0.3-0.7-0.6-1.1-0.8l-1.9,12.5C-267.4,1007.9-273.1,1013.7-279.4,1014.6z"
     id="path23" /><g
     id="g25"><g
       id="g27"><path
         class="st1"
         d="M-201.6,857.1h-22.5c-1.5,0-2.6-0.8-1.9-1.6l11.6-14.6l11-13.7c0.7-0.9,3.1-0.9,3.9,0l11,13.7l11.6,14.6    c0.6,0.7-0.4,1.6-1.9,1.6H-201.6z"
         id="path29" /><path
         class="st1"
         d="M-201.6,967.9h22.5c1.5,0,2.6,0.8,1.9,1.6l-11.6,14.6l-11,13.7c-0.7,0.9-3.1,0.9-3.9,0l-11-13.7l-11.5-14.5    c-0.6-0.7,0.4-1.6,1.9-1.6L-201.6,967.9L-201.6,967.9z"
         id="path31" /></g><g
       id="g33"><rect
         x="-213.6"
         y="909"
         class="st1"
         width="24.3"
         height="6.9"
         id="rect35" /><rect
         x="-213.6"
         y="949.1"
         class="st1"
         width="24.3"
         height="6.9"
         id="rect37" /><rect
         x="-213.6"
         y="889"
         class="st1"
         width="24.3"
         height="6.9"
         id="rect39" /><rect
         x="-213.6"
         y="929"
         class="st1"
         width="24.3"
         height="6.9"
         id="rect41" /><rect
         x="-213.6"
         y="869"
         class="st1"
         width="24.3"
         height="6.9"
         id="rect43" /></g></g></svg>