<?xml version="1.0" encoding="UTF-8" standalone="no"?>
<!-- Generator: Adobe Illustrator 19.0.0, SVG Export Plug-In . SVG Version: 6.00 Build 0)  -->

<svg
   xmlns:dc="http://purl.org/dc/elements/1.1/"
   xmlns:cc="http://creativecommons.org/ns#"
   xmlns:rdf="http://www.w3.org/1999/02/22-rdf-syntax-ns#"
   xmlns:svg="http://www.w3.org/2000/svg"
   xmlns="http://www.w3.org/2000/svg"
   xmlns:sodipodi="http://sodipodi.sourceforge.net/DTD/sodipodi-0.dtd"
   xmlns:inkscape="http://www.inkscape.org/namespaces/inkscape"
   version="1.1"
   id="Layer_1"
   x="0px"
   y="0px"
   viewBox="-49 141 512 512"
   style="enable-background:new -49 141 512 512;"
   xml:space="preserve"
   inkscape:version="0.91 r13725"
   sodipodi:docname="icon02.svg"><metadata
     id="metadata189"><rdf:RDF><cc:Work
         rdf:about=""><dc:format>image/svg+xml</dc:format><dc:type
           rdf:resource="http://purl.org/dc/dcmitype/StillImage" /></cc:Work></rdf:RDF></metadata><defs
     id="defs187" /><sodipodi:namedview
     pagecolor="#ffffff"
     bordercolor="#666666"
     borderopacity="1"
     objecttolerance="10"
     gridtolerance="10"
     guidetolerance="10"
     inkscape:pageopacity="0"
     inkscape:pageshadow="2"
     inkscape:window-width="1920"
     inkscape:window-height="1017"
     id="namedview185"
     showgrid="false"
     inkscape:zoom="0.4609375"
     inkscape:cx="256"
     inkscape:cy="-351.45763"
     inkscape:window-x="-8"
     inkscape:window-y="-8"
     inkscape:window-maximized="1"
     inkscape:current-layer="Layer_1" /><style
     type="text/css"
     id="style3">
	.st0{fill:#58595B;}
	.st1{fill:#FFFFFF;}
	.st2{fill:#231F20;}
</style><circle
     class="st0"
     cx="207"
     cy="397"
     r="222.7"
     id="circle5" /><g
     id="g7"><path
       class="st1"
       d="M166.8,222.4c-63.6,0-115.2,51.6-115.2,115.2s51.6,115.2,115.2,115.2H269c7.2,0,13-5.8,13-13V337.6   C282,274,230.4,222.4,166.8,222.4z M258.4,361.2v46.2V419c0,5.7-4.6,10.3-10.3,10.3h-11.5h-46.2h-23.6c-50.6,0-91.6-41-91.6-91.6   s41-91.6,91.6-91.6s91.6,41,91.6,91.6V361.2z"
       id="path9" /><path
       class="st1"
       d="M216,328.8h-40.4h-17.7h-40.5c-4.9,0-8.8,3.9-8.8,8.8c0,4.9,3.9,8.8,8.8,8.8h40.5h17.7H216   c4.9,0,8.8-3.9,8.8-8.8C224.9,332.8,220.9,328.8,216,328.8z"
       id="path11" /></g><path
     class="st1"
     d="M275.9,460.8l-12.5,1.9c0.2,0.4,0.5,0.7,0.8,1.1l71.3,83.8c3.4,3.4,7.8,4.5,12.4-0.1l27.6-27.6  c4.6-4.6,3.5-9,0.1-12.4l-83.8-71.3c-0.3-0.3-0.7-0.6-1.1-0.8l-1.9,12.5C288,454.1,282.2,459.9,275.9,460.8z"
     id="path13" /><g
     id="g15"><path
       class="st1"
       d="M252.8,548.4c0,1.5-0.9,2.5-1.6,1.9l-14.6-11.6l-13.7-11c-0.9-0.8-0.9-3.2,0-3.9l13.7-11l14.6-11.6   c0.8-0.7,1.6,0.4,1.6,1.9v22.5V548.4z"
       id="path17" /><path
       class="st1"
       d="M80.8,525.6V503c0-1.5,0.9-2.5,1.6-1.9l14.5,11.5l13.7,11c0.9,0.8,0.9,3.2,0,3.9l-13.7,11L82.3,550   c-0.8,0.7-1.6-0.4-1.6-1.9L80.8,525.6L80.8,525.6z"
       id="path19" /><rect
       x="163.3"
       y="513.6"
       class="st1"
       width="6.9"
       height="24.3"
       id="rect21" /><rect
       x="203.3"
       y="513.6"
       class="st1"
       width="6.9"
       height="24.3"
       id="rect23" /><rect
       x="143.3"
       y="513.6"
       class="st1"
       width="6.9"
       height="24.3"
       id="rect25" /><rect
       x="183.3"
       y="513.6"
       class="st1"
       width="6.9"
       height="24.3"
       id="rect27" /><rect
       x="123.3"
       y="513.6"
       class="st1"
       width="6.9"
       height="24.3"
       id="rect29" /></g></svg>