<?xml version="1.0" encoding="UTF-8" standalone="no"?>
<!-- Created with Inkscape (http://www.inkscape.org/) -->

<svg
   xmlns:dc="http://purl.org/dc/elements/1.1/"
   xmlns:cc="http://creativecommons.org/ns#"
   xmlns:rdf="http://www.w3.org/1999/02/22-rdf-syntax-ns#"
   xmlns:svg="http://www.w3.org/2000/svg"
   xmlns="http://www.w3.org/2000/svg"
   xmlns:sodipodi="http://sodipodi.sourceforge.net/DTD/sodipodi-0.dtd"
   xmlns:inkscape="http://www.inkscape.org/namespaces/inkscape"
   id="svg2"
   version="1.1"
   inkscape:version="0.91 r13725"
   xml:space="preserve"
   width="640"
   height="640"
   viewBox="0 0 640 640"
   sodipodi:docname="icon_rezoom.svg"><metadata
     id="metadata8"><rdf:RDF><cc:Work
         rdf:about=""><dc:format>image/svg+xml</dc:format><dc:type
           rdf:resource="http://purl.org/dc/dcmitype/StillImage" /><dc:title></dc:title></cc:Work></rdf:RDF></metadata><defs
     id="defs6"><clipPath
       clipPathUnits="userSpaceOnUse"
       id="clipPath16"><path
         d="M 0,512 512,512 512,0 0,0 0,512 Z"
         id="path18"
         inkscape:connector-curvature="0" /></clipPath></defs><sodipodi:namedview
     pagecolor="#ffffff"
     bordercolor="#666666"
     borderopacity="1"
     objecttolerance="10"
     gridtolerance="10"
     guidetolerance="10"
     inkscape:pageopacity="0"
     inkscape:pageshadow="2"
     inkscape:window-width="688"
     inkscape:window-height="480"
     id="namedview4"
     showgrid="false"
     inkscape:zoom="0.36875"
     inkscape:cx="320"
     inkscape:cy="320"
     inkscape:window-x="0"
     inkscape:window-y="0"
     inkscape:window-maximized="0"
     inkscape:current-layer="g10" /><g
     id="g10"
     inkscape:groupmode="layer"
     inkscape:label="icon_rezoom"
     transform="matrix(1.25,0,0,-1.25,0,640)"><g
       id="g12"><g
         id="g14"
         clip-path="url(#clipPath16)"><g
           id="g20"
           transform="translate(478.7389,256)"><path
             d="m 0,0 c 0,-123.015 -99.724,-222.739 -222.739,-222.739 -123.015,0 -222.739,99.724 -222.739,222.739 0,123.015 99.724,222.739 222.739,222.739 C -99.724,222.739 0,123.015 0,0 Z"
             style="fill:none;stroke:#000000;stroke-width:20;stroke-linecap:butt;stroke-linejoin:miter;stroke-miterlimit:10;stroke-dasharray:none;stroke-opacity:1"
             id="path22"
             inkscape:connector-curvature="0" /></g><g
           id="g24"
           transform="translate(112.2609,264.7389)"><path
             d="M 0,0 C 0.032,-0.066 0.068,-0.129 0.1,-0.195 L 0.396,0 0,0 Z"
             style="fill:#000000;fill-opacity:1;fill-rule:nonzero;stroke:none"
             id="path26"
             inkscape:connector-curvature="0" /></g><g
           id="g28"
           transform="translate(215.753,430.555)"><path
             d="m 0,0 c -63.131,0 -114.391,-50.782 -115.184,-113.724 7.808,0.926 15.681,0.789 23.579,0.659 1.136,49.619 41.713,89.494 91.605,89.494 50.607,0 91.632,-41.025 91.632,-91.632 l 0,-81.319 c 0,-5.716 -4.596,-10.313 -10.312,-10.313 l -81.32,0 c -21.313,0 -40.917,7.285 -56.476,19.495 l -15.629,-17.671 C -52.371,-220.89 -27.304,-230.406 0,-230.406 l 102.239,0 c 7.189,0 12.964,5.775 12.964,12.965 l 0,102.238 C 115.203,-51.578 63.625,0 0,0"
             style="fill:#000000;fill-opacity:1;fill-rule:nonzero;stroke:none"
             id="path30"
             inkscape:connector-curvature="0" /></g><g
           id="g32"
           transform="translate(324.9292,192.2121)"><path
             d="m 0,0 -12.544,-1.879 c 0.244,-0.372 0.514,-0.729 0.835,-1.05 l 71.272,-83.799 c 3.404,-3.403 7.823,-4.502 12.426,0.101 l 27.602,27.602 c 4.603,4.603 3.504,9.022 0.101,12.426 L 15.893,24.673 c -0.321,0.321 -0.678,0.591 -1.05,0.835 L 12.964,12.964 C 12.028,6.711 6.253,0.936 0,0"
             style="fill:#000000;fill-opacity:1;fill-rule:nonzero;stroke:none"
             id="path34"
             inkscape:connector-curvature="0" /></g><g
           id="g36"
           transform="translate(119.8407,345.0444)"><path
             d="M 0,0 43.269,-1.666 20.192,-38.305 -2.885,-74.944 -23.077,-36.639 -43.269,1.666 0,0 Z"
             style="fill:#000000;fill-opacity:1;fill-rule:nonzero;stroke:none"
             id="path38"
             inkscape:connector-curvature="0" /></g></g></g></g></svg>