<?xml version="1.0" encoding="UTF-8" standalone="no"?>
<!-- Generator: Adobe Illustrator 19.0.0, SVG Export Plug-In . SVG Version: 6.00 Build 0)  -->

<svg
   xmlns:dc="http://purl.org/dc/elements/1.1/"
   xmlns:cc="http://creativecommons.org/ns#"
   xmlns:rdf="http://www.w3.org/1999/02/22-rdf-syntax-ns#"
   xmlns:svg="http://www.w3.org/2000/svg"
   xmlns="http://www.w3.org/2000/svg"
   xmlns:sodipodi="http://sodipodi.sourceforge.net/DTD/sodipodi-0.dtd"
   xmlns:inkscape="http://www.inkscape.org/namespaces/inkscape"
   version="1.1"
   id="Layer_1"
   x="0px"
   y="0px"
   viewBox="-49 694.9 512 512"
   style="enable-background:new -49 694.9 512 512;"
   xml:space="preserve"
   inkscape:version="0.91 r13725"
   sodipodi:docname="icon04.svg"><metadata
     id="metadata133"><rdf:RDF><cc:Work
         rdf:about=""><dc:format>image/svg+xml</dc:format><dc:type
           rdf:resource="http://purl.org/dc/dcmitype/StillImage" /></cc:Work></rdf:RDF></metadata><defs
     id="defs131" /><sodipodi:namedview
     pagecolor="#ffffff"
     bordercolor="#666666"
     borderopacity="1"
     objecttolerance="10"
     gridtolerance="10"
     guidetolerance="10"
     inkscape:pageopacity="0"
     inkscape:pageshadow="2"
     inkscape:window-width="1920"
     inkscape:window-height="1017"
     id="namedview129"
     showgrid="false"
     inkscape:zoom="0.4609375"
     inkscape:cx="256"
     inkscape:cy="177.6242"
     inkscape:window-x="-8"
     inkscape:window-y="-8"
     inkscape:window-maximized="1"
     inkscape:current-layer="Layer_1" /><style
     type="text/css"
     id="style3">
	.st0{fill:#58595B;}
	.st1{fill:#FFFFFF;}
	.st2{fill:#231F20;}
</style><circle
     class="st0"
     cx="207"
     cy="950.9"
     r="222.7"
     id="circle9" /><g
     id="g11"><path
       class="st1"
       d="M166.8,776.3c-63.6,0-115.2,51.6-115.2,115.2s51.6,115.2,115.2,115.2H269c7.2,0,13-5.8,13-13V891.5   C282,827.9,230.4,776.3,166.8,776.3z M258.4,915.1v46.2v11.5c0,5.7-4.6,10.3-10.3,10.3h-11.5h-46.2h-23.6   c-50.6,0-91.6-41-91.6-91.6s41-91.6,91.6-91.6s91.6,41,91.6,91.6V915.1z"
       id="path13" /><path
       class="st1"
       d="M175.6,842.2c0-4.9-3.9-8.8-8.8-8.8c-4.9,0-8.8,3.9-8.8,8.8v40.5h17.7V842.2z"
       id="path15" /><path
       class="st1"
       d="M157.9,940.8c0,4.9,3.9,8.8,8.8,8.8c4.9,0,8.8-4,8.8-8.9v-40.4h-17.7V940.8z"
       id="path17" /><path
       class="st1"
       d="M117.4,882.7c-4.9,0-8.8,3.9-8.8,8.8c0,4.9,3.9,8.8,8.8,8.8h40.5v-17.7H117.4z"
       id="path19" /><path
       class="st1"
       d="M216,882.7h-40.4v17.7H216c4.9,0,8.8-3.9,8.8-8.8C224.9,886.6,220.9,882.7,216,882.7z"
       id="path21" /></g><path
     class="st1"
     d="M275.9,1014.6l-12.5,1.9c0.2,0.4,0.5,0.7,0.8,1.1l71.3,83.8c3.4,3.4,7.8,4.5,12.4-0.1l27.6-27.6  c4.6-4.6,3.5-9,0.1-12.4L291.8,990c-0.3-0.3-0.7-0.6-1.1-0.8l-1.9,12.5C288,1007.9,282.2,1013.7,275.9,1014.6z"
     id="path23" /><g
     id="g25"><path
       class="st1"
       d="M222.2,1079.5V1057c0-1.5,0.8-2.6,1.6-1.9l14.6,11.6l13.7,11c0.9,0.7,0.9,3.1,0,3.9l-13.7,11l-14.6,11.6   c-0.7,0.6-1.6-0.4-1.6-1.9V1079.5z"
       id="path27" /><path
       class="st1"
       d="M111.3,1079.5v22.5c0,1.5-0.8,2.6-1.6,1.9l-14.6-11.6l-13.7-11c-0.9-0.7-0.9-3.1,0-3.9l13.7-11l14.5-11.5   c0.7-0.6,1.6,0.4,1.6,1.9L111.3,1079.5L111.3,1079.5z"
       id="path29" /></g><rect
     x="163.3"
     y="1067.5"
     class="st1"
     width="6.9"
     height="24.3"
     id="rect31" /><rect
     x="203.3"
     y="1067.5"
     class="st1"
     width="6.9"
     height="24.3"
     id="rect33" /><rect
     x="143.3"
     y="1067.5"
     class="st1"
     width="6.9"
     height="24.3"
     id="rect35" /><rect
     x="183.3"
     y="1067.5"
     class="st1"
     width="6.9"
     height="24.3"
     id="rect37" /><rect
     x="123.3"
     y="1067.5"
     class="st1"
     width="6.9"
     height="24.3"
     id="rect39" /></svg>