<?xml version="1.0" encoding="UTF-8" standalone="no"?>
<!-- Generator: Adobe Illustrator 19.0.0, SVG Export Plug-In . SVG Version: 6.00 Build 0)  -->

<svg
   xmlns:dc="http://purl.org/dc/elements/1.1/"
   xmlns:cc="http://creativecommons.org/ns#"
   xmlns:rdf="http://www.w3.org/1999/02/22-rdf-syntax-ns#"
   xmlns:svg="http://www.w3.org/2000/svg"
   xmlns="http://www.w3.org/2000/svg"
   xmlns:sodipodi="http://sodipodi.sourceforge.net/DTD/sodipodi-0.dtd"
   xmlns:inkscape="http://www.inkscape.org/namespaces/inkscape"
   version="1.1"
   id="Layer_1"
   x="0px"
   y="0px"
   viewBox="-1167.6 694.9 512 512"
   style="enable-background:new -1167.6 694.9 512 512;"
   xml:space="preserve"
   inkscape:version="0.91 r13725"
   sodipodi:docname="icon01.svg"><metadata
     id="metadata249"><rdf:RDF><cc:Work
         rdf:about=""><dc:format>image/svg+xml</dc:format><dc:type
           rdf:resource="http://purl.org/dc/dcmitype/StillImage" /></cc:Work></rdf:RDF></metadata><defs
     id="defs247" /><sodipodi:namedview
     pagecolor="#ffffff"
     bordercolor="#666666"
     borderopacity="1"
     objecttolerance="10"
     gridtolerance="10"
     guidetolerance="10"
     inkscape:pageopacity="0"
     inkscape:pageshadow="2"
     inkscape:window-width="1920"
     inkscape:window-height="1017"
     id="namedview245"
     showgrid="false"
     inkscape:zoom="0.23046875"
     inkscape:cx="2059.6281"
     inkscape:cy="73.92785"
     inkscape:window-x="-8"
     inkscape:window-y="-8"
     inkscape:window-maximized="1"
     inkscape:current-layer="Layer_1" /><style
     type="text/css"
     id="style3">
	.st0{fill:#58595B;}
	.st1{fill:#FFFFFF;}
	.st2{fill:#ED1C24;}
	.st3{fill:#F03C22;}
	.st4{fill:#F35D20;}
	.st5{fill:#F67D1E;}
	.st6{fill:#F99D1B;}
	.st7{fill:#FCBE19;}
	.st8{fill:#FFDE17;}
	.st9{fill:#D4D420;}
	.st10{fill:#AACA28;}
	.st11{fill:#80C031;}
	.st12{fill:#55B53A;}
	.st13{fill:#2BAB42;}
	.st14{fill:#00A14B;}
	.st15{fill:#069158;}
	.st16{fill:#0B8165;}
	.st17{fill:#117172;}
	.st18{fill:#166080;}
	.st19{fill:#1B508D;}
	.st20{fill:#21409A;}
	.st21{fill:#404099;}
	.st22{fill:#504099;}
	.st23{fill:#603F99;}
	.st24{fill:#7F3F98;}
	.st25{font-family:'ScriptMTBold';}
	.st26{font-size:341.6635px;}
	.st27{fill:#231F20;}
</style><circle
     class="st0"
     cx="-911.6"
     cy="950.9"
     r="222.7"
     id="circle171" /><rect
     x="-923.8"
     y="763.5"
     class="st2"
     width="24.4"
     height="118.5"
     id="rect173" /><rect
     x="-956.9"
     y="767.9"
     transform="matrix(0.9659 -0.2588 0.2588 0.9659 -246.2609 -216.3326)"
     class="st3"
     width="24.4"
     height="118.5"
     id="rect175" /><rect
     x="-987.8"
     y="780.7"
     transform="matrix(0.866 -0.5 0.5 0.866 -550.6606 -375.2916)"
     class="st4"
     width="24.4"
     height="118.5"
     id="rect177" /><rect
     x="-1014.4"
     y="801"
     transform="matrix(0.7071 -0.7071 0.7071 0.7071 -901.8245 -456.6749)"
     class="st5"
     width="24.4"
     height="118.5"
     id="rect179" /><rect
     x="-1034.7"
     y="827.5"
     transform="matrix(0.5 -0.866 0.866 0.5 -1279.2505 -442.1376)"
     class="st6"
     width="24.4"
     height="118.5"
     id="rect181" /><rect
     x="-1047.5"
     y="858.4"
     transform="matrix(0.2588 -0.9659 0.9659 0.2588 -1653.7882 -319.8715)"
     class="st7"
     width="24.4"
     height="118.5"
     id="rect183" /><rect
     x="-1098.9"
     y="938.7"
     class="st8"
     width="118.5"
     height="24.4"
     id="rect185" /><rect
     x="-1047.5"
     y="924.8"
     transform="matrix(-0.2588 -0.9659 0.9659 -0.2588 -2253.7705 238.6435)"
     class="st9"
     width="24.4"
     height="118.5"
     id="rect187" /><rect
     x="-1034.7"
     y="955.7"
     transform="matrix(-0.5 -0.866 0.866 -0.5 -2412.7295 636.8305)"
     class="st10"
     width="24.4"
     height="118.5"
     id="rect189" /><rect
     x="-1014.4"
     y="982.2"
     transform="matrix(-0.7071 -0.7071 0.7071 -0.7071 -2447.2192 1069.2164)"
     class="st11"
     width="24.4"
     height="118.5"
     id="rect191" /><rect
     x="-987.8"
     y="1002.6"
     transform="matrix(-0.866 -0.5 0.5 -0.866 -2351.4597 1493.536)"
     class="st12"
     width="24.4"
     height="118.5"
     id="rect193" /><rect
     x="-956.9"
     y="1015.4"
     transform="matrix(-0.9659 -0.2588 0.2588 -0.9659 -2135.4065 1868.0737)"
     class="st13"
     width="24.4"
     height="118.5"
     id="rect195" /><rect
     x="-923.8"
     y="1019.7"
     class="st14"
     width="24.4"
     height="118.5"
     id="rect197" /><rect
     x="-890.6"
     y="1015.4"
     transform="matrix(-0.9659 0.2588 -0.2588 -0.9659 -1448.7758 2339.9402)"
     class="st15"
     width="24.4"
     height="118.5"
     id="rect199" /><rect
     x="-859.7"
     y="1002.6"
     transform="matrix(-0.866 0.5 -0.5 -0.866 -1050.5889 2405.1121)"
     class="st16"
     width="24.4"
     height="118.5"
     id="rect201" /><rect
     x="-833.2"
     y="982.2"
     transform="matrix(-0.7071 0.7071 -0.7071 -0.7071 -665.0965 2358.3799)"
     class="st17"
     width="24.4"
     height="118.5"
     id="rect203" /><rect
     x="-812.8"
     y="955.7"
     transform="matrix(-0.5 0.866 -0.866 -0.5 -321.9991 2215.7268)"
     class="st18"
     width="24.4"
     height="118.5"
     id="rect205" /><rect
     x="-800"
     y="924.8"
     transform="matrix(-0.2588 0.9659 -0.9659 -0.2588 -41.2485 1999.6735)"
     class="st19"
     width="24.4"
     height="118.5"
     id="rect207" /><rect
     x="-842.7"
     y="938.7"
     class="st20"
     width="118.5"
     height="24.4"
     id="rect209" /><rect
     x="-800"
     y="858.4"
     transform="matrix(0.2588 0.9659 -0.9659 0.2588 302.5024 1441.1584)"
     class="st20"
     width="24.4"
     height="118.5"
     id="rect211" /><rect
     x="-812.8"
     y="827.5"
     transform="matrix(0.5 0.866 -0.866 0.5 367.6743 1136.7587)"
     class="st21"
     width="24.4"
     height="118.5"
     id="rect213" /><rect
     x="-833.2"
     y="801"
     transform="matrix(0.7071 0.7071 -0.7071 0.7071 367.8355 832.4885)"
     class="st22"
     width="24.4"
     height="118.5"
     id="rect215" /><rect
     x="-859.7"
     y="780.7"
     transform="matrix(0.866 0.5 -0.5 0.866 306.4046 536.2845)"
     class="st23"
     width="24.4"
     height="118.5"
     id="rect217" /><rect
     x="-890.6"
     y="767.9"
     transform="matrix(0.9659 0.2588 -0.2588 0.9659 184.1384 255.534)"
     class="st24"
     width="24.4"
     height="118.5"
     id="rect219" /><text
     transform="matrix(1 0 0 1 -1021.933 1052.6749)"
     class="st1 st25 st26"
     id="text221">L</text>
</svg>